<svg id="Layer_1" data-name="Layer 1" xmlns="http://www.w3.org/2000/svg" viewBox="0 0 79.61 29.47"><defs><style>.cls-1{fill:#fff;}.cls-2{fill:#fcd078;}.cls-3{fill:#211e1f;}.cls-4{fill:#ffdf97;}.cls-5{fill:#dab229;}.cls-6{fill:#eeca1b;}.cls-7{fill:#ffeec4;}.cls-8{fill:#2964ac;}.cls-9{fill:#c22034;}.cls-10{fill:#dfe0e0;}.cls-11{fill:#b5c9e8;}.cls-12{fill:#c7e5d1;}.cls-13{fill:#00734c;}.cls-14{fill:#fff5e7;}.cls-15{fill:#fffae4;}.cls-16{fill:#221f1f;}</style></defs><g id="Artwork_1" data-name="Artwork 1"><path class="cls-1" d="M38.26,24.92a.69.69,0,0,0-.57-.22h0a.86.86,0,0,0-.32.05.27.27,0,0,0-.18.15c-.12.24-.44,1.08-.56,1.42a2.34,2.34,0,0,1-.64.12c.15-.26.29-.53.34-.62a3.26,3.26,0,0,0,.49-1.31.3.3,0,0,0-.2-.31h0a4.22,4.22,0,0,1-1.65-1.31,1.42,1.42,0,0,0-1.25-.83,1.36,1.36,0,0,0-.29,0A8,8,0,0,0,33.8,20V11.58a.31.31,0,0,0-.31-.31H31.1a.87.87,0,0,0,0-.36.67.67,0,0,0,.33-.27.76.76,0,0,0-.21-.86A.83.83,0,0,0,31,9.4a1.64,1.64,0,0,0-.56-.61,4.29,4.29,0,0,0,.5-.19A.43.43,0,0,0,31.14,8a.45.45,0,0,0-.2-.21h0a.44.44,0,0,0-.29-.27,1.75,1.75,0,0,1-.28-.13,2.81,2.81,0,0,0-.73-.73l.1-.15a2.92,2.92,0,0,1,.86-.78l.33-.13a.3.3,0,0,0,0-.58.81.81,0,0,0-.31,0h-.19a4.8,4.8,0,0,1,.7-.39.33.33,0,0,0,.15-.42A.3.3,0,0,0,31,4H31a2.7,2.7,0,0,0-.85.14l.28-.28.15-.11a.32.32,0,0,0-.28-.56,5.24,5.24,0,0,0-.69.28A2.17,2.17,0,0,1,30,3.15a.3.3,0,0,0,.11-.42.32.32,0,0,0-.32-.15,2.34,2.34,0,0,0-1.06.49,1.1,1.1,0,0,1,.09-.14.31.31,0,0,0-.44-.43,1.56,1.56,0,0,0-.2.16A.66.66,0,0,0,28,2.6a.3.3,0,0,0-.19-.39l-.09,0h-.09A.37.37,0,0,0,27.51,2a.32.32,0,0,0-.34-.09,1.19,1.19,0,0,0-.51.4.35.35,0,0,0-.13-.11.33.33,0,0,0-.35.06,1.08,1.08,0,0,0-.29.75,1,1,0,0,0-.3,0A2.82,2.82,0,0,0,25,2.5a.31.31,0,0,0-.43.08.32.32,0,0,0,0,.35,1.1,1.1,0,0,1,.09.14,2.3,2.3,0,0,0-1.06-.49.31.31,0,0,0-.36.25.31.31,0,0,0,.15.32,2,2,0,0,1,.4.36,4.3,4.3,0,0,0-.7-.29.32.32,0,0,0-.39.21.33.33,0,0,0,.12.34,3.47,3.47,0,0,1,.45.41A2.45,2.45,0,0,0,22.36,4a.32.32,0,0,0-.3.32.33.33,0,0,0,.18.27A6.23,6.23,0,0,1,23,5h-.21a.81.81,0,0,0-.31,0,.3.3,0,0,0-.17.4.29.29,0,0,0,.17.17,3,3,0,0,1,1.06.71l-.17.12-.11-.06a2.19,2.19,0,0,0-1-.38A.75.75,0,0,0,22,6h-.13a.61.61,0,0,0-.18,0l-.28.1-.06,0a.75.75,0,0,0-.43.41.81.81,0,0,0,0,.71.4.4,0,0,0,.13.16h0a1.6,1.6,0,0,0,1.12.67l0,0a3.31,3.31,0,0,0,.38.17,1,1,0,0,0-.28.72,1.26,1.26,0,0,0,.55.91L23,10l-.14.08,0,0a1.17,1.17,0,0,0-.54.82.82.82,0,0,0,0,.31H20a.31.31,0,0,0-.31.31V20a8.65,8.65,0,0,0,.42,2.13,1,1,0,0,0-.3,0,1.4,1.4,0,0,0-1.25.83,4.29,4.29,0,0,1-1.65,1.31h0a.3.3,0,0,0-.2.31,3.27,3.27,0,0,0,.5,1.31c0,.09.18.36.33.62a2.27,2.27,0,0,1-.63-.12c-.13-.34-.44-1.18-.57-1.42a.27.27,0,0,0-.18-.15.86.86,0,0,0-.32-.05h0a.69.69,0,0,0-.57.22.88.88,0,0,0-.18.7c.1.86.25,2.18.26,2.28s.11,1,1.33,1.21a3.9,3.9,0,0,0,.91.08,6,6,0,0,0,2.06-.37,11.3,11.3,0,0,0,7.17,2.56,11.13,11.13,0,0,0,7.16-2.55,6.3,6.3,0,0,0,2.07.36,4,4,0,0,0,.91-.08c1.21-.25,1.31-1.11,1.32-1.2s.16-1.43.26-2.29a.87.87,0,0,0-.18-.7M27.61,28.53A11.74,11.74,0,0,0,31.13,26a3.35,3.35,0,0,0,.53,1,8.75,8.75,0,0,1-4.05,1.61m-5.84-1.61a3.55,3.55,0,0,0,.54-1,11.77,11.77,0,0,0,3.52,2.58,8.76,8.76,0,0,1-4.06-1.61" transform="translate(-14.98 -1.9)"/><path class="cls-2" d="M25.68,5.47s-.41-2.27-2.11-2.58a3.19,3.19,0,0,1,1.28,2l.54.9Z" transform="translate(-14.98 -1.9)"/><path class="cls-3" d="M25.39,5.78h0l0,0-.53-.89a3.25,3.25,0,0,0-1.28-1.95,0,0,0,0,1,0,0h0c1.7.3,2.14,2.58,2.14,2.6s0,0,0,0l-.29.28h0M23.71,3a3.41,3.41,0,0,1,1.17,1.89l.52.86.25-.25c0-.19-.48-2.11-1.94-2.5" transform="translate(-14.98 -1.9)"/><path class="cls-4" d="M25.45,5a3.26,3.26,0,0,0-1.54-1.91,3.66,3.66,0,0,1,1,1.73l.33.6.19.09s.15-.08,0-.51" transform="translate(-14.98 -1.9)"/><path class="cls-5" d="M25.61,5.49a3.92,3.92,0,0,0-.42-1.14,7.18,7.18,0,0,1,.25,1A5.21,5.21,0,0,0,25,4.27a8.38,8.38,0,0,1,.35,1.18A6.1,6.1,0,0,0,25,4.53s.27.77.27.86S25,4.75,25,4.63l.07.42a4.53,4.53,0,0,1,.36.64,2.54,2.54,0,0,0,.21-.2" transform="translate(-14.98 -1.9)"/><path class="cls-2" d="M25.44,5.8A3.67,3.67,0,0,0,23,3.52a6.11,6.11,0,0,1,1.45,1.67,2.92,2.92,0,0,1,.72,1.11s.3-.24.25-.5" transform="translate(-14.98 -1.9)"/><path class="cls-3" d="M25.19,6.33h0l0,0a2.9,2.9,0,0,0-.71-1.09A6.26,6.26,0,0,0,23,3.54s0,0,0,0,0,0,0,0a3.73,3.73,0,0,1,2.44,2.3c.06.28-.25.52-.26.53h0M24.5,5.17a2.92,2.92,0,0,1,.7,1.07c.08-.07.25-.25.21-.43A3.72,3.72,0,0,0,23.18,3.6,6.41,6.41,0,0,1,24.5,5.17" transform="translate(-14.98 -1.9)"/><path class="cls-4" d="M23.31,3.68A3.92,3.92,0,0,1,24.83,4.9l.1.19s.47.75.26.86a4.34,4.34,0,0,1-.42-.54s-1.31-1.8-1.46-1.73" transform="translate(-14.98 -1.9)"/><path class="cls-5" d="M25.39,5.77a5.86,5.86,0,0,0-.66-.91,8.27,8.27,0,0,1,.5,1s-.38-.77-.52-1a6.16,6.16,0,0,1,.43.94,8.72,8.72,0,0,0-.6-1,3.33,3.33,0,0,1,.27.61l.27.5.15.22.12-.14.08-.17Z" transform="translate(-14.98 -1.9)"/><path class="cls-2" d="M24.05,6.58a2.81,2.81,0,0,0-1.5-1.25s.71-.28,2,1l0,.09Z" transform="translate(-14.98 -1.9)"/><path class="cls-3" d="M24.05,6.61l0,0a2.8,2.8,0,0,0-1.48-1.23s0,0,0,0h0a.39.39,0,0,1,.21,0,2.77,2.77,0,0,1,1.83,1l0,.1s0,0,0,0l0,0-.54.14h0M22.66,5.34a3,3,0,0,1,1.41,1.2l.48-.12,0,0c-1-1-1.64-1-1.87-1" transform="translate(-14.98 -1.9)"/><path class="cls-4" d="M24.37,6.32s-.11.34-.61-.25A2.56,2.56,0,0,0,23,5.44a3.44,3.44,0,0,1,1.37.88" transform="translate(-14.98 -1.9)"/><path class="cls-2" d="M24.59,6.44s-.3-1.2-2.22-2.1a3.22,3.22,0,0,1,2.87,2s-.4.32-.65.1" transform="translate(-14.98 -1.9)"/><path class="cls-3" d="M24.81,6.55a.36.36,0,0,1-.24-.09,3.79,3.79,0,0,0-2.21-2.1s0,0,0,0l0,0h0a3.28,3.28,0,0,1,2.86,2s0,0,0,0a.93.93,0,0,1-.45.18M22.52,4.37a3.68,3.68,0,0,1,2.1,2.06.33.33,0,0,0,.19.06.83.83,0,0,0,.39-.16,3.26,3.26,0,0,0-2.68-2" transform="translate(-14.98 -1.9)"/><path class="cls-4" d="M22.74,4.44a3.35,3.35,0,0,1,2.15,1.44,2.09,2.09,0,0,1,.11.43s-.21.05-.22,0-.55-.86-.62-.79a5.42,5.42,0,0,0-1.42-1" transform="translate(-14.98 -1.9)"/><path class="cls-5" d="M24.13,6.51A3.45,3.45,0,0,0,23.67,6a6.81,6.81,0,0,0,.53.43A2.36,2.36,0,0,0,23.84,6a2.35,2.35,0,0,0,.47.36,3.52,3.52,0,0,0-.57-.52,3,3,0,0,1,.8.6Z" transform="translate(-14.98 -1.9)"/><path class="cls-5" d="M25.15,6.29a3.63,3.63,0,0,0-.74-.87,5.37,5.37,0,0,1,.55.85c-.17-.24-.34-.46-.52-.67a4.47,4.47,0,0,1,.4.71,7,7,0,0,0-.45-.63,3.17,3.17,0,0,1,.28.62l0,.1.45-.11" transform="translate(-14.98 -1.9)"/><path class="cls-2" d="M26.21,5.09a4.13,4.13,0,0,0-1.36-2.33,4.92,4.92,0,0,1,.78,2.71s.59-.25.58-.38" transform="translate(-14.98 -1.9)"/><path class="cls-3" d="M25.63,5.51h0a0,0,0,0,1,0,0,4.88,4.88,0,0,0-.78-2.7.06.06,0,0,1,0,0h0a4.17,4.17,0,0,1,1.37,2.35c0,.15-.45.36-.6.42h0M25,2.88a4.87,4.87,0,0,1,.71,2.54c.25-.11.51-.27.51-.33A4.33,4.33,0,0,0,25,2.88" transform="translate(-14.98 -1.9)"/><path class="cls-4" d="M25.19,3.18s.36.15.77,1.48c0,0,0,.28.05.39s-.13-.09-.2,0l0,.3a5.91,5.91,0,0,0-.59-2.19" transform="translate(-14.98 -1.9)"/><path class="cls-5" d="M25.78,5.37a2.66,2.66,0,0,0-.11-1,8.91,8.91,0,0,1,.23.91,6,6,0,0,0-.39-1.44A5.65,5.65,0,0,1,26,5a4.39,4.39,0,0,0-.41-1.27s.2.11.5,1.22l0,.16s-.19.27-.33.27" transform="translate(-14.98 -1.9)"/><path class="cls-2" d="M27.71,5.47s.42-2.27,2.11-2.58a3.23,3.23,0,0,0-1.28,2l-.54.9Z" transform="translate(-14.98 -1.9)"/><path class="cls-3" d="M28,5.78h0l-.29-.28a0,0,0,0,1,0,0s.44-2.3,2.14-2.6c0,0,0,0,0,0s0,0,0,0a3.21,3.21,0,0,0-1.27,1.94l-.54.9,0,0h0m-.26-.32L28,5.7l.51-.87A3.44,3.44,0,0,1,29.68,3c-1.46.39-1.89,2.31-1.94,2.51" transform="translate(-14.98 -1.9)"/><path class="cls-4" d="M27.94,5a3.24,3.24,0,0,1,1.55-1.91,3.73,3.73,0,0,0-1,1.73l-.33.6-.19.09s-.15-.08,0-.51" transform="translate(-14.98 -1.9)"/><path class="cls-5" d="M27.79,5.49a3.63,3.63,0,0,1,.41-1.14,7.18,7.18,0,0,0-.25,1,5.21,5.21,0,0,1,.43-1.07A7.19,7.19,0,0,0,28,5.45a6.05,6.05,0,0,1,.36-.92s-.27.77-.27.86.23-.64.3-.76l-.08.42c-.13.21-.25.42-.36.64a1.72,1.72,0,0,1-.2-.2" transform="translate(-14.98 -1.9)"/><path class="cls-2" d="M28,5.81a3.69,3.69,0,0,1,2.42-2.28,6.22,6.22,0,0,0-1.45,1.66A3.22,3.22,0,0,0,28.2,6.3s-.3-.24-.25-.49" transform="translate(-14.98 -1.9)"/><path class="cls-3" d="M28.2,6.33h0s-.32-.25-.26-.53a3.73,3.73,0,0,1,2.44-2.3s0,0,0,0a0,0,0,0,1,0,0,7.47,7.47,0,0,0-1.48,1.74,3.92,3.92,0,0,0-.68,1s0,0,0,0h0m2-2.73A3.68,3.68,0,0,0,28,5.81c0,.18.14.37.21.43a3.93,3.93,0,0,1,.67-1A7.25,7.25,0,0,1,30.23,3.6" transform="translate(-14.98 -1.9)"/><path class="cls-4" d="M30.09,3.68A3.78,3.78,0,0,0,28.57,4.9l-.11.19S28,5.84,28.2,6a3.57,3.57,0,0,0,.42-.54s1.32-1.8,1.47-1.73" transform="translate(-14.98 -1.9)"/><path class="cls-5" d="M28,5.77a5.21,5.21,0,0,1,.65-.91,8.27,8.27,0,0,0-.5,1s.38-.77.52-1a6.16,6.16,0,0,0-.43.94,8.72,8.72,0,0,1,.6-1,3.33,3.33,0,0,0-.27.61l-.27.5-.14.22-.12-.14L28,5.92Z" transform="translate(-14.98 -1.9)"/><path class="cls-2" d="M29.19,6.84a3.1,3.1,0,0,1,1.65-1.5s-.71-.29-2,1l-.18.35Z" transform="translate(-14.98 -1.9)"/><path class="cls-3" d="M29.2,6.88h0l-.52-.25a0,0,0,0,1,0,0h0l.14-.25a2.79,2.79,0,0,1,1.84-1.06.39.39,0,0,1,.21,0s0,0,0,0l0,0a2.92,2.92,0,0,0-1.62,1.49l0,0h0m-.47-.29.46.22a3,3,0,0,1,1.52-1.47c-.24,0-.88,0-1.86,1Z" transform="translate(-14.98 -1.9)"/><path class="cls-4" d="M29,6.32s.11.34.61-.25a2.56,2.56,0,0,1,.76-.63A3.44,3.44,0,0,0,29,6.32" transform="translate(-14.98 -1.9)"/><path class="cls-5" d="M29.09,6.76A5.39,5.39,0,0,1,29.73,6s-.37.32-.54.44A3,3,0,0,1,29.55,6a2.35,2.35,0,0,1-.47.36,3.52,3.52,0,0,1,.57-.52,2.58,2.58,0,0,0-.91.76Z" transform="translate(-14.98 -1.9)"/><path class="cls-2" d="M28.75,6.55A3.94,3.94,0,0,1,31,4.34a3.22,3.22,0,0,0-2.87,2s.42.27.6.21" transform="translate(-14.98 -1.9)"/><path class="cls-3" d="M28.59,6.68h0c-.23,0-.45-.31-.46-.32a0,0,0,0,1,0,0A3.28,3.28,0,0,1,31,4.3h0l0,0,0,0A4,4,0,0,0,28.77,6.6a.25.25,0,0,1-.18.08m-.4-.34c0,.06.23.28.4.28a.17.17,0,0,0,.12,0,4,4,0,0,1,2.16-2.2,3.24,3.24,0,0,0-2.68,2" transform="translate(-14.98 -1.9)"/><path class="cls-4" d="M30.65,4.44A3.35,3.35,0,0,0,28.5,5.88a2.09,2.09,0,0,0-.11.43s.21.05.22,0,.55-.86.63-.79a5.21,5.21,0,0,1,1.41-1" transform="translate(-14.98 -1.9)"/><path class="cls-5" d="M28.25,6.29A3.23,3.23,0,0,1,29,5.42a4.26,4.26,0,0,0-.55.85A6.94,6.94,0,0,1,29,5.6a4.47,4.47,0,0,0-.4.71A7,7,0,0,1,29,5.68a3.17,3.17,0,0,0-.28.62l-.08.23c-.41-.12-.34-.24-.39-.24" transform="translate(-14.98 -1.9)"/><path class="cls-2" d="M27.18,5.09a4.13,4.13,0,0,1,1.36-2.33,4.92,4.92,0,0,0-.78,2.71s-.59-.25-.58-.38" transform="translate(-14.98 -1.9)"/><path class="cls-3" d="M27.76,5.51h0c-.14-.06-.61-.27-.6-.41a4.22,4.22,0,0,1,1.37-2.36h0s0,0,0,0a4.88,4.88,0,0,0-.78,2.7,0,0,0,0,1,0,0h0m.67-2.63a4.33,4.33,0,0,0-1.22,2.21c0,.06.26.22.52.33a4.77,4.77,0,0,1,.7-2.54" transform="translate(-14.98 -1.9)"/><path class="cls-4" d="M28.2,3.18s-.36.15-.77,1.48c0,0,0,.28,0,.39s.13-.09.19,0l0,.3a5.84,5.84,0,0,1,.58-2.19" transform="translate(-14.98 -1.9)"/><path class="cls-5" d="M27.62,5.37a2.48,2.48,0,0,1,.1-1,8.91,8.91,0,0,0-.23.91,6,6,0,0,1,.39-1.44A5.13,5.13,0,0,0,27.42,5a4.09,4.09,0,0,1,.4-1.27s-.2.11-.5,1.22l0,.16s.19.27.34.27" transform="translate(-14.98 -1.9)"/><path class="cls-4" d="M25.28,6.14l0-.17.1-.06.05-.15,0-.11.17-.29.18-.05.2-.27.38-.1.2-.09H27L27.3,5l.28,0,.18.23.4.33V6l.16.46a5,5,0,0,0-3-.29" transform="translate(-14.98 -1.9)"/><path class="cls-3" d="M28.37,6.5l-.08,0a4.32,4.32,0,0,0-1.91-.38,8,8,0,0,0-1.1.09h-.05l.08-.24.1-.05.06-.24.18-.32.18,0L26,5l.38-.1.2-.09H27l.29.16.28,0,.18.23.41.34V6Zm-2-.48a4.52,4.52,0,0,1,1.88.35L28.12,6V5.64l-.39-.32-.18-.23-.26,0L27,4.88h-.38L26.44,5l-.37.1-.22.27-.16,0-.17.29v.1l-.06.16-.1.06,0,.11A7.45,7.45,0,0,1,26.38,6" transform="translate(-14.98 -1.9)"/><polygon class="cls-6" points="11.1 3.78 11.42 3.78 11.58 3.5 11.14 3.5 11.1 3.78"/><polygon class="cls-6" points="11.36 3.78 11.47 4.07 11.58 4.06 11.65 3.96 11.53 3.93 11.6 3.9 11.69 3.84 11.42 3.73 11.36 3.78"/><path class="cls-6" d="M26.43,5.09,26.59,5H27l.17,0,.09.07s.12.16.13.13.09,0,.09,0l.12.14.13.19h.14l-.07.15,0,.12-.05.26H28l.11.09h.06L28.12,6l0-.32-.21-.16-.18-.16-.21-.24-.22,0-.19-.12-.19,0-.35,0-.12,0-.09,0Z" transform="translate(-14.98 -1.9)"/><polygon class="cls-6" points="12 3.76 11.92 3.79 11.84 3.7 11.69 3.84 11.76 3.92 11.72 4.12 12.02 4.13 12.12 3.88 12.25 3.79 12.13 3.67 12.11 3.57 12.2 3.58 12.01 3.45 12.1 3.3 12.28 3.22 11.82 3.15 11.65 3.5 11.96 3.49 12 3.76"/><polygon class="cls-6" points="10.64 3.61 10.92 3.8 11.05 3.8 10.89 3.44 10.64 3.61"/><polygon class="cls-5" points="13.16 4.12 13.07 4.18 12.76 4.16 12.61 3.87 12.87 3.5 12.8 3.44 12.55 3.82 12.21 3.83 12.06 3.56 12.42 3.16 12.33 3.14 12 3.5 11.65 3.5 11.51 3.09 11.43 3.11 11.58 3.5 11.42 3.78 11.11 3.78 10.92 3.38 10.89 3.44 10.86 3.44 11.04 3.79 10.84 4.04 10.48 4.02 10.4 4.07 10.85 4.1 11.07 3.84 11.41 3.84 11.52 4.11 11.59 4.11 11.49 3.83 11.63 3.59 11.99 3.59 12.12 3.85 12.02 4.13 12.09 4.14 12.17 3.92 12.54 3.9 12.68 4.2 13.05 4.26 13.01 4.33 13.05 4.34 13.13 4.24 13.19 4.2 13.16 4.12"/><path class="cls-3" d="M27.34,5.45H27l.28.07a.16.16,0,0,0,.07.09l.17.14-.11-.18s0,0,0-.07l.31-.17a1.36,1.36,0,0,1-.44.11" transform="translate(-14.98 -1.9)"/><path class="cls-3" d="M27.85,5.41l.15.37.16-.16-.1.21.1.12-.11,0s0,0-.11,0l-.23.17.15-.17V5.85l-.29,0,.32,0h.05" transform="translate(-14.98 -1.9)"/><polygon class="cls-3" points="11.14 3.5 11.05 3.83 11.2 3.52 11.25 3.53 11.44 3.8 11.32 3.51 11.6 3.52 11.29 3.45 11.19 3.45 10.94 3.4 11.14 3.5"/><polygon class="cls-3" points="11.73 3.87 11.65 3.92 11.66 3.99 11.69 4.05 11.73 4.15 11.77 4.04 11.83 4.02 11.88 3.94 12.12 3.88 11.85 3.86 11.73 3.87"/><path class="cls-3" d="M27.28,6.06l.1-.07.05,0v.08s-.15,0-.15-.06" transform="translate(-14.98 -1.9)"/><path class="cls-3" d="M26.06,6,26.13,6l0,0,0,.06a.15.15,0,0,1-.13,0" transform="translate(-14.98 -1.9)"/><polygon class="cls-3" points="10.75 3.84 10.65 3.84 10.47 3.99 10.66 3.91 10.84 4.04 10.75 3.91 11.02 3.77 10.75 3.84"/><polygon class="cls-3" points="11.76 3.2 11.8 3.27 11.85 3.47 11.9 3.25 12.2 3.17 11.76 3.2"/><polygon class="cls-6" points="12.17 3.92 12.09 4.14 12.16 4.14 12.23 4.04 12.34 4.01 12.34 3.92 12.17 3.92"/><polygon class="cls-6" points="12.4 4.09 12.45 4.13 12.43 4.17 12.68 4.21 12.56 3.93 12.4 4.09"/><path class="cls-5" d="M25.57,3.4a.82.82,0,0,1,.74.12l.18.11.1.13a3.48,3.48,0,0,0-.36-.22c-.07,0,.25.18.25.18l-.28-.14.18.13-.2-.07Z" transform="translate(-14.98 -1.9)"/><path class="cls-5" d="M26.72,4.72s-.36,0-.47.21V5l.49-.12Z" transform="translate(-14.98 -1.9)"/><path class="cls-6" d="M25.6,4.77a1.45,1.45,0,0,1,1-.14.65.65,0,0,0-.65.6c.1-.2.75-.32.75-.32s.15.38.15.28A1.74,1.74,0,0,1,27,4.81c.09-.11.77.18.77.18,0-.36-.64-.5-.64-.5.28-.26,1.06-.12,1.06-.12C27.76,3.82,27,4.21,27,4.21a1.26,1.26,0,0,1,1.16-.42c-.36-.39-1-.07-1-.07a1.71,1.71,0,0,1,1-.71c-.36-.39-1.12.41-1.12.41a2.91,2.91,0,0,1,.67-.92c-.49,0-.8.71-.8.71a4.13,4.13,0,0,1,.41-1c-.57.22-.72,1.12-.72,1.12-.23-.2-.16-.84-.16-.84a.83.83,0,0,0-.07,1s-.58-.32-.83-.08A2.55,2.55,0,0,1,26.61,4a1,1,0,0,0-1.2.09s1-.08,1.2.23a1.06,1.06,0,0,0-1,.35Z" transform="translate(-14.98 -1.9)"/><path class="cls-3" d="M26,5.26h0a0,0,0,0,1,0,0,.68.68,0,0,1,.49-.6H26.3a1.5,1.5,0,0,0-.69.17h0s0,0,0,0v-.1a1,1,0,0,1,.85-.4h.11a1.67,1.67,0,0,0-.85-.17h-.26s0,0,0,0a0,0,0,0,1,0,0A.9.9,0,0,1,26,3.8a1.08,1.08,0,0,1,.44.09,3,3,0,0,0-1-.44s0,0,0,0a0,0,0,0,1,0,0,.37.37,0,0,1,.28-.1,1.2,1.2,0,0,1,.5.13.83.83,0,0,1,.12-.95s0,0,0,0,0,0,0,0a1.6,1.6,0,0,0,.11.78c.05-.22.23-.9.72-1.09l0,0a0,0,0,0,1,0,0c-.13.24-.24.49-.35.75a.92.92,0,0,1,.7-.51,0,0,0,0,1,0,0s0,0,0,0a3.57,3.57,0,0,0-.61.78,1.5,1.5,0,0,1,.79-.43.36.36,0,0,1,.27.12,0,0,0,0,1,0,0l0,0a1.71,1.71,0,0,0-.89.6,1.49,1.49,0,0,1,.42-.08.69.69,0,0,1,.51.21,0,0,0,0,1,0,0,0,0,0,0,1,0,0h-.2a1.19,1.19,0,0,0-.84.32,1.5,1.5,0,0,1,.47-.08.82.82,0,0,1,.67.3s0,0,0,0l0,0a2.38,2.38,0,0,0-.46,0,.89.89,0,0,0-.53.11c.16,0,.56.2.6.5,0,0,0,0,0,0h0a2.81,2.81,0,0,0-.68-.21s-.05,0-.06,0a1.91,1.91,0,0,0-.13.36s0,0,0,0-.05,0-.12-.15a.88.88,0,0,1-.05-.15c-.2,0-.63.16-.7.3s0,0,0,0m.75-.39s0,0,0,0a2.29,2.29,0,0,0,.1.23A2.09,2.09,0,0,1,27,4.79a.15.15,0,0,1,.11,0,2.54,2.54,0,0,1,.65.19c-.1-.29-.6-.42-.6-.42s0,0,0,0h0a.92.92,0,0,1,.62-.17,2.43,2.43,0,0,1,.38,0,.74.74,0,0,0-.56-.22,1.4,1.4,0,0,0-.57.13s0,0,0,0,0,0,0,0a1.19,1.19,0,0,1,1-.44H28a.6.6,0,0,0-.39-.12,1.16,1.16,0,0,0-.51.12,0,0,0,0,1,0,0v0A1.92,1.92,0,0,1,28.05,3a.3.3,0,0,0-.18-.06c-.36,0-.84.51-.84.51a0,0,0,0,1-.05,0s0,0,0,0a2.54,2.54,0,0,1,.61-.87c-.42.07-.68.68-.69.68s0,0,0,0,0,0,0,0a3.93,3.93,0,0,1,.37-.93,1.76,1.76,0,0,0-.61,1.06,0,0,0,0,1,0,0s0,0,0,0c-.19-.16-.19-.58-.18-.77a.8.8,0,0,0,0,.88,0,0,0,0,1,0,0h0a1.52,1.52,0,0,0-.56-.17.41.41,0,0,0-.19,0A2.31,2.31,0,0,1,26.63,4a0,0,0,0,1,0,0,0,0,0,0,1,0,0A1.25,1.25,0,0,0,26,3.86a.81.81,0,0,0-.52.19h.17c.36,0,.82,0,1,.25a0,0,0,0,1,0,0s0,0,0,0l-.19,0a1,1,0,0,0-.79.36v0a1.47,1.47,0,0,1,.68-.15,1.23,1.23,0,0,1,.33,0,.05.05,0,0,1,0,0l0,0a.6.6,0,0,0-.61.46,2,2,0,0,1,.69-.26h0" transform="translate(-14.98 -1.9)"/><path class="cls-5" d="M25.85,4.62a2,2,0,0,1,.72-.16c.21,0,.23.13.23.13a.56.56,0,0,1-.07.13l-.21,0s-.22.08-.23.12,0,.11,0,.11-.24.08-.25.12a.71.71,0,0,1,.19-.31,1.65,1.65,0,0,1,.41-.18l-.12,0-.32,0Z" transform="translate(-14.98 -1.9)"/><path class="cls-5" d="M26.36,2.59a.8.8,0,0,0,0,.89v0a.28.28,0,0,1,0-.15c0-.07,0-.06,0-.06s.09.15.11.15-.09-.18-.09-.18l.1.07-.06-.13L26.33,3a1.35,1.35,0,0,1,0-.4" transform="translate(-14.98 -1.9)"/><path class="cls-5" d="M26.68,3.62l-.07-.09s.15-.9.5-1.14l.05,0a4.17,4.17,0,0,0-.29.84,1.83,1.83,0,0,1,.35-.44,3.22,3.22,0,0,0-.2.67,1.53,1.53,0,0,1,.4-.31.79.79,0,0,1,.26-.08c.09,0-.44.42-.48.52a2.88,2.88,0,0,1-.27.34L27,3.65l-.17.15.1-.28-.12.12V3.4l-.07.27,0-.31Z" transform="translate(-14.98 -1.9)"/><path class="cls-5" d="M25.66,3.94l-.17.11a2.57,2.57,0,0,1,.48,0l.39.07L26,4l.22,0L26.1,4l.17,0a1.06,1.06,0,0,0-.61-.08" transform="translate(-14.98 -1.9)"/><path class="cls-5" d="M26.49,4.18l0-.08.07.05,0-.06h.05l.1,0,.13.14.13-.1.15-.11L27,4.18v.08l-.08.09,0,0V4.4l-.06-.06,0,0,0,0,0,0,0,0,0,0,0,0s0-.07,0-.09l-.1-.07" transform="translate(-14.98 -1.9)"/><path class="cls-5" d="M27.14,4.44l0,0-.05.06V4.38L27,4.47h-.13l-.05.13.12,0,0,.07L27,4.55l.1,0,.08-.07s0,0,0,0,0,0,0,0" transform="translate(-14.98 -1.9)"/><path class="cls-7" d="M26.7,3.54a.6.6,0,0,1-.05.16.42.42,0,0,0,0,.22.15.15,0,0,0,.09.06l.11-.11-.1-.12a.52.52,0,0,1-.07-.21" transform="translate(-14.98 -1.9)"/><path class="cls-7" d="M26.86,4.4s0-.12.11-.14a1,1,0,0,1,.94-.07l-.06,0a1.7,1.7,0,0,0-.71,0,.48.48,0,0,0-.23.19Z" transform="translate(-14.98 -1.9)"/><path class="cls-7" d="M26.09,5.08s.19-.29.33-.34a1.13,1.13,0,0,1,.24-.08l.09,0,.05,0h.05v.14l0,0v.05h-.09s.07.1,0,.15S26.78,5,26.78,5l0-.19-.07,0a.56.56,0,0,0-.23.07s-.13.07-.16.15-.19.14-.19.14" transform="translate(-14.98 -1.9)"/><path class="cls-7" d="M25.66,3.94a1.24,1.24,0,0,1,.54-.06c.14,0,.44.12.49.24s.16,0,.16,0a1.12,1.12,0,0,1,.32-.33l.15-.06.25,0-.18.1h.17l-.22.07a1.09,1.09,0,0,0-.17.13c-.05,0-.29.24-.31.27s-.06.09-.1.08a1.92,1.92,0,0,1-.18-.22S26.23,4,26.11,4a2.26,2.26,0,0,0-.45,0" transform="translate(-14.98 -1.9)"/><path class="cls-7" d="M25.66,3.36h.12a1.31,1.31,0,0,1,.89.42v.09a1.94,1.94,0,0,0-1-.5" transform="translate(-14.98 -1.9)"/><path class="cls-7" d="M26.93,4.64a1.23,1.23,0,0,1,.33,0l.26.14a1.55,1.55,0,0,1-.31,0l-.28-.07" transform="translate(-14.98 -1.9)"/><path class="cls-7" d="M26.8,4.59s-.18-.32-.95,0l-.22.1v0a1.11,1.11,0,0,1,1-.31s.17.05.17,0,0,.18,0,.18" transform="translate(-14.98 -1.9)"/><polygon class="cls-7" points="11.66 2.67 11.75 2.56 11.65 2.55 11.66 2.67"/><path class="cls-7" d="M27.08,3.54A1.15,1.15,0,0,1,27.9,3l-.82.54" transform="translate(-14.98 -1.9)"/><polygon class="cls-7" points="11.36 1.28 11.45 1.47 11.59 1.51 11.78 1.05 11.88 0.81 11.81 0.86 11.58 1.43 11.51 1.36 11.37 1.18 11.36 1.28"/><path class="cls-3" d="M30.93,9.93a.5.5,0,0,0-.2-.33,1.33,1.33,0,0,0-.85-.72l0,0a1.81,1.81,0,0,1,.29-.33,3,3,0,0,0,.6-.21.11.11,0,0,0,.06-.15.13.13,0,0,0-.07-.06L30.62,8h0a.11.11,0,0,0,0-.11.12.12,0,0,0-.07-.07,2.22,2.22,0,0,1-.38-.18l-.06,0h0a3.3,3.3,0,0,0-1.78-1.25H28.3l-.11,0,0,0A3.77,3.77,0,0,0,26.57,6h-.2a.07.07,0,0,0-.06,0h-.1A1,1,0,0,0,26,6a2.68,2.68,0,0,0-.74.13h0l-.07,0h-.08a3,3,0,0,0-.77.2l-.36.14h0l-.09,0h0s-.08,0-.34.19l0,0v0a1.31,1.31,0,0,1-.37-.15,2,2,0,0,0-.89-.34H21.9a.13.13,0,0,0-.09,0,.79.79,0,0,0-.26.08.08.08,0,0,0,0,0h0a.57.57,0,0,0-.28.25.54.54,0,0,0,0,.45.18.18,0,0,0,.08.07l0,0,0,0h0a1.29,1.29,0,0,0,1,.56l.05,0a2,2,0,0,0,.57.21h.09l.06.06,0,0a.37.37,0,0,0,0,.18h-.07s-.05,0-.06,0a.79.79,0,0,0-.36.64,1,1,0,0,0,.43.67,1.89,1.89,0,0,0,1.14.31,5.36,5.36,0,0,0,1-.12,1.1,1.1,0,0,0,.4-.08.11.11,0,0,0,0-.16.08.08,0,0,0-.07,0,2.26,2.26,0,0,1-.35-.17.18.18,0,0,1-.07-.05.1.1,0,0,0,0-.05A4.71,4.71,0,0,0,27,9.7a7.49,7.49,0,0,0,2-.28h0l.08.09A2.09,2.09,0,0,0,31,10.61h0a.13.13,0,0,0,.1,0,.11.11,0,0,0,.07-.06s.1-.26-.21-.58" transform="translate(-14.98 -1.9)"/><path class="cls-8" d="M33.1,21.75a1.55,1.55,0,0,0-.75.53,1.2,1.2,0,0,1-1.67.34,1.55,1.55,0,0,1-.27-.24,1.75,1.75,0,0,0-2.33-.31c-1,.82-1.27.73-1.31.71h0s-.3.11-1.31-.71a1.75,1.75,0,0,0-2.33.31,1.22,1.22,0,0,1-1.7.17,1.55,1.55,0,0,1-.24-.27,1.55,1.55,0,0,0-.75-.53h-.1a10.32,10.32,0,0,0,1,2.31l.08,0a1.27,1.27,0,0,0,1.79.15,1.59,1.59,0,0,0,.13-.13,1.6,1.6,0,0,1,1.84-.29,2.93,2.93,0,0,0,1.58.4h0a2.93,2.93,0,0,0,1.58-.4,1.6,1.6,0,0,1,1.84.29,1.27,1.27,0,0,0,1.79.12.86.86,0,0,0,.13-.14,9.43,9.43,0,0,0,1-2.28Z" transform="translate(-14.98 -1.9)"/><path class="cls-8" d="M29.52,25.73a.88.88,0,0,0-1.22-.2l-.12.11c-.72,1-1.3,1-1.4,1s-.67-.05-1.39-1a.87.87,0,0,0-1.23,0l-.11.13s-.51.59-1,.37l-.09,0a11.87,11.87,0,0,0,3.73,2.4,11.83,11.83,0,0,0,3.74-2.41c-.45.19-.94-.38-.94-.38" transform="translate(-14.98 -1.9)"/><path class="cls-8" d="M32.62,18.44a1.94,1.94,0,0,1-2.72.37,1.14,1.14,0,0,1-.17-.15,1.12,1.12,0,0,0-1.57-.08L28,18.7a1.92,1.92,0,0,1-1.28.67,1.92,1.92,0,0,1-1.28-.67,1.11,1.11,0,0,0-1.57-.15l-.12.11a1.93,1.93,0,0,1-2.73,0,1.19,1.19,0,0,1-.15-.18,1.28,1.28,0,0,0-.89-.33v1.82a2.89,2.89,0,0,1,1.45.84,2,2,0,0,0,3-.37s.28-.42,1.44.42a1.78,1.78,0,0,0,.83.33h0a1.74,1.74,0,0,0,.82-.33C28.76,20,29,20.4,29,20.4a2,2,0,0,0,3,.37A3.11,3.11,0,0,1,33.43,20V18.11a1.28,1.28,0,0,0-.81.33" transform="translate(-14.98 -1.9)"/><path class="cls-9" d="M21.34,17s1,1.25,2.09-.16a1.4,1.4,0,0,1,1.95-.28,1.29,1.29,0,0,1,.34.36,1.51,1.51,0,0,0,1,.66,1.49,1.49,0,0,0,1-.66,1.39,1.39,0,0,1,1.92-.42,1.34,1.34,0,0,1,.37.34c1.14,1.41,2.09.16,2.09.16a2.12,2.12,0,0,1,1.25-.76v-4.6l-6.71,0-6.7,0v4.6c.16,0,.62,0,1.32.76" transform="translate(-14.98 -1.9)"/><path class="cls-3" d="M26.72,28.59h0C20.11,25.83,20,20,20,20V11.58H33.49V20c0,.05-.16,5.87-6.75,8.62ZM20.08,11.71V20c0,.05.16,5.77,6.64,8.49C33.2,25.73,33.36,20,33.36,20V11.71H20.08Z" transform="translate(-14.98 -1.9)"/><path class="cls-3" d="M23.82,10.15a2.11,2.11,0,0,0-.74.22.72.72,0,0,0-.38,1,.73.73,0,0,0,.24.29h1.18s.37-.17.45-.32.45.16.67-.11a1.07,1.07,0,0,0,.61-.07.63.63,0,0,1,.19,0,3.78,3.78,0,0,0,.95-.09,1.4,1.4,0,0,0,.67.12s.15,0,.15,0a.52.52,0,0,0,.37,0l.12,0a.85.85,0,0,0,.62.15.78.78,0,0,0,.55.1,1.1,1.1,0,0,0,1.17,0,.7.7,0,0,0,0-.93,2.8,2.8,0,0,0-1.23-.55A1,1,0,0,0,29,9.9a.94.94,0,0,0-.8-.09s0,0-.12,0a1,1,0,0,0-.29-.11,11.55,11.55,0,0,0-1.86,0c-.16.11-1.38.1-1.74.34a2.07,2.07,0,0,0-.34.15" transform="translate(-14.98 -1.9)"/><path class="cls-1" d="M25.2,10a.07.07,0,0,1,.06,0,.62.62,0,0,0,.23,0,.37.37,0,0,1,.18,0,.62.62,0,0,0,.17-.11.15.15,0,0,1,.11,0l.31,0c.1,0,.39,0,.44.16s.21.64.22.68S27,11,27,11a6.26,6.26,0,0,1-1.06,0,5.17,5.17,0,0,0-.71-1" transform="translate(-14.98 -1.9)"/><path class="cls-10" d="M26.07,10.2s-.15,0-.15.08,0,.17,0,.15h.11a.11.11,0,0,0,.13.06h.05c.05,0,.09,0,.16-.11s.14-.23-.2-.21l-.14,0" transform="translate(-14.98 -1.9)"/><path class="cls-10" d="M26.51,9.82a.59.59,0,0,0,.08.43s.1.11,0,.19-.17.26-.25.26a1.37,1.37,0,0,0-.4.09s-.14,0-.14,0,0,.17.1.18a4.53,4.53,0,0,0,1,0s.1,0-.29-1.07c0,0-.12-.11-.17-.07" transform="translate(-14.98 -1.9)"/><path class="cls-8" d="M24.4,10.08s-.34,0-.39.2c0,0,0,.06,0,.06l.14.23c0,.06.21.63.54.61A2.16,2.16,0,0,0,25.3,11c.1,0,.47,0,.48,0a5.28,5.28,0,0,0-.67-1,2.13,2.13,0,0,0-.71.09" transform="translate(-14.98 -1.9)"/><path class="cls-11" d="M24.07,10.23a3.58,3.58,0,0,1,.26.29c0,.08.25.32.29.29s.05,0-.09-.24-.24-.49,0-.34a2.46,2.46,0,0,1,.55.41c0,.07.15.08.1-.05s-.57-.5-.6-.55a.43.43,0,0,1,.39.1s.24.19.06-.06c0,0,0-.07.1,0l0-.06a1.72,1.72,0,0,0-.71.09s-.36,0-.33.15" transform="translate(-14.98 -1.9)"/><path class="cls-1" d="M23.54,10.36a1,1,0,0,0-.23.06s-.22.13-.29.18a.57.57,0,0,0-.19.24s-.06.37.08.51a.74.74,0,0,0,.45.15h.31s.51-.38.52-.41-.07-.2-.12-.3l-.17-.27-.17-.18-.19,0" transform="translate(-14.98 -1.9)"/><path class="cls-10" d="M23.61,10.34l.23-.07a.46.46,0,0,1,.17.17s.21.41.21.41.23.4.29.41a2.91,2.91,0,0,1-.66.33c-.17,0-.61.11-.78,0s-.17-.24-.17-.24a.65.65,0,0,1,.31,0c.07.06.24.17.36.1a.4.4,0,0,1,.23-.08s.54-.33.21-.48a.17.17,0,0,0-.21,0c-.11.06-.1.11-.15.14s-.08,0-.19,0-.23,0-.17-.14.14-.09.14-.09a.34.34,0,0,1,.32-.07s-.21-.28-.14-.35" transform="translate(-14.98 -1.9)"/><path class="cls-11" d="M27,9.79a2.46,2.46,0,0,1,1,.14.23.23,0,0,1,.13.16,2.68,2.68,0,0,1,0,.49l-.17.34-.33,0-.49-.41-.24-.59A.13.13,0,0,1,27,9.79" transform="translate(-14.98 -1.9)"/><path class="cls-8" d="M26.91,9.81s-.07.07,0,.13a3.87,3.87,0,0,1,.25.55.69.69,0,0,0,0-.35c-.06-.14.14,0,.16,0a2,2,0,0,1,.36.6s.21.11,0-.3c0,0-.48-.79,0-.26,0,0,.38.39.32.16S27.76,10,27.8,10a.91.91,0,0,1,.28.33A2.76,2.76,0,0,0,28,10s.36.88.18,1.14a.89.89,0,0,1-.43-.07.86.86,0,0,1-.68-.13s-.23-.82-.29-1a.13.13,0,0,1,.11-.14" transform="translate(-14.98 -1.9)"/><path class="cls-1" d="M28.51,9.92s-.41-.07-.3.15a1.63,1.63,0,0,1,.08.37,4.87,4.87,0,0,0,.06.55,3.48,3.48,0,0,0,.85-.11l0-.66,0-.05a2.18,2.18,0,0,0-.64-.25" transform="translate(-14.98 -1.9)"/><path class="cls-10" d="M29.07,10.12s.09.21.06.23a.24.24,0,0,1-.18.05.65.65,0,0,0-.27-.05.33.33,0,0,0-.16.07c-.05.05-.32.07,0,.19a.45.45,0,0,0,.23,0c.09,0,.26,0,.26,0s.08.06.08.1a.19.19,0,0,1-.21.15.77.77,0,0,0-.37,0c-.08,0-.18,0-.21,0s0,.31.24.35a1.44,1.44,0,0,1,.54.14c.17.09.35.1.37,0a10.56,10.56,0,0,0-.09-1.12s0-.05-.32-.18" transform="translate(-14.98 -1.9)"/><path class="cls-11" d="M29.77,10.32s-.31-.14-.3-.05.16,1,.14,1.09.77.11.77.11l.21-.32-.12-.53a4.34,4.34,0,0,0-.7-.3" transform="translate(-14.98 -1.9)"/><path class="cls-8" d="M30.47,10.62s-.17-.07-.17,0,.17.41.16.45-.07,0-.31-.45c0,0-.31-.25,0,.12,0,0,.12.78,0,.48a3.3,3.3,0,0,0-.43-.78,1.39,1.39,0,0,0,0,.41s-.06.3-.09.47v.17s.63.35.92.11c0,0,.38-.34-.05-1" transform="translate(-14.98 -1.9)"/><polygon class="cls-12" points="14.64 7.02 14.82 7.08 15.34 7.37 15.55 7.73 15.8 8.08 15.9 8.26 16.06 8.55 15.92 8.58 15.39 8.44 14.45 7.8 14.23 7.52 14.06 7.32 14.64 7.02"/><path class="cls-13" d="M29.72,9l-.17.14s-.05,0,0,.05.14.1.1.15.08,0,.08,0,.09,0,.09,0-.07,0,0-.05A.48.48,0,0,1,30,9.2h.14l0,0s-.32,0-.3.06a.16.16,0,0,0,.12.12,1.31,1.31,0,0,1,.39.05v0s-.27,0-.27,0,0,.2.06.2,0,.12,0,.12,0,.25.5.16a.25.25,0,0,1,.12.11,2,2,0,0,1-.42,0,2.1,2.1,0,0,0,.13.26s.46.12.46.12.08-.17-.23-.46c0,0,0-.24-.17-.3A1.23,1.23,0,0,0,29.72,9" transform="translate(-14.98 -1.9)"/><path class="cls-13" d="M29.18,9.35A2,2,0,0,0,31,10.5a2.45,2.45,0,0,1-.54-.18s0-.26-.24-.26c0,0,0,.13,0,.13s0-.08-.13-.13-.12,0-.12,0a.18.18,0,0,1-.1-.16,1.68,1.68,0,0,1-.67-.57" transform="translate(-14.98 -1.9)"/><path class="cls-13" d="M29.54,9.4a.12.12,0,0,1,.14,0s.33-.1.38.17a.19.19,0,0,1,0,.09,1,1,0,0,1-.47-.29" transform="translate(-14.98 -1.9)"/><path class="cls-13" d="M29.68,9.62a.22.22,0,0,0,.21.2s.06.24.39.16a.34.34,0,0,1-.07-.22s0,0-.23,0a.85.85,0,0,0-.3-.15" transform="translate(-14.98 -1.9)"/><path class="cls-12" d="M23.57,6.82A3.9,3.9,0,0,1,25,6.33a3.12,3.12,0,0,1,.53-.11,5.1,5.1,0,0,1,1.17,0c.46.06,1.35.27,1.35.27s.11,0,.29.09L30,7.64a1.57,1.57,0,0,0,.24.21c.12.08-.45.79-.45.79l-.15.17-1.44.57-1.57.1-.52-.06-.79-.25-.65-.4a3.83,3.83,0,0,0-.33-.46L24,8l-.48-.39Z" transform="translate(-14.98 -1.9)"/><path class="cls-13" d="M25.88,7.19a.58.58,0,0,0,.5,0,1.8,1.8,0,0,1,.66.3s.21,0,.23.19a2.2,2.2,0,0,0,.05.57,1.68,1.68,0,0,1,.07.7l-.15,0a2,2,0,0,1-.64,0,.92.92,0,0,0-.37,0s-.29-.19-.41-.19a.73.73,0,0,0-.06-.41,1.53,1.53,0,0,1,.12-1.22" transform="translate(-14.98 -1.9)"/><path class="cls-13" d="M28.11,7.39a1.17,1.17,0,0,0,.1-.26,2.08,2.08,0,0,1,1.42.94l-.14.29a4.36,4.36,0,0,0-.51.17,1.8,1.8,0,0,0-.87-1.14" transform="translate(-14.98 -1.9)"/><path class="cls-13" d="M27.48,7.59l-.09.09a.29.29,0,0,0,0,.16,3.88,3.88,0,0,1,.17.75c0,.23,0,.31,0,.35s.28,0,.35,0a4.63,4.63,0,0,0,.88-.32c0-.06,0-.09,0-.18a5,5,0,0,0-.71-.93,2.15,2.15,0,0,0-.62.08" transform="translate(-14.98 -1.9)"/><path class="cls-13" d="M24.14,7.29v.38s.26,0,.35.12a8.47,8.47,0,0,0,.79.67,1.72,1.72,0,0,0,.41.19L25.56,8a1.31,1.31,0,0,1,.13-.65c.06-.11,0-.2-.08-.2a1.56,1.56,0,0,0-.79.19s-.49.14-.68,0" transform="translate(-14.98 -1.9)"/><path class="cls-13" d="M24,6.62A.35.35,0,0,0,24,7c.19.18.11.18.29.18a.66.66,0,0,1,.24,0s.23,0,.28-.09l.33-.53c.05-.09.14-.24,0-.32S24,6.62,24,6.62" transform="translate(-14.98 -1.9)"/><path class="cls-13" d="M25.27,6.26a2,2,0,0,1,.95-.1.44.44,0,0,1,.17.23s0,.59-.18.65-.15.1-.26,0a1.44,1.44,0,0,0-.87,0s0,0,.06-.13.32-.46.13-.69" transform="translate(-14.98 -1.9)"/><path class="cls-13" d="M26.37,6.13a4.09,4.09,0,0,1,1.73.28s.07.53,0,.62a.8.8,0,0,0-.13.32s-.55.17-.62.12a4.18,4.18,0,0,0-.89-.4c-.14,0,.33-.33-.08-.94" transform="translate(-14.98 -1.9)"/><path class="cls-13" d="M28.31,6.48s-.08.49,0,.52a2.16,2.16,0,0,1,1.48,1s.09.09.27-.29a3.21,3.21,0,0,0-1.72-1.2" transform="translate(-14.98 -1.9)"/><path class="cls-13" d="M23.8,6.65l0,.23s-.19,0-.23.09a.25.25,0,0,0,.17,0s.33.38.23.52-.39,0-.4.1v.05a.56.56,0,0,0,.28-.05.3.3,0,0,1,.12.13c0,.09.3.15.39.22a.69.69,0,0,1-.16.18c-.07.05,0,.12,0,.07s.2-.19.22-.16a1,1,0,0,0,.3.25c.11.05.21.1.21.16s-.29.27-.29.27.09.14.12.11a3.83,3.83,0,0,1,.29-.28c.22.11.43.24.64.37s.08.11,0,.19a.64.64,0,0,0-.08.19s.11.09.14.06S25.94,9,26,9a2.12,2.12,0,0,0,.79.09.56.56,0,0,1-.05.28s.14.06.16,0a1.09,1.09,0,0,0,0-.25s.93-.08,1.08-.07a.57.57,0,0,1,.12.23s.14,0,.14,0-.17-.2-.08-.25a11.26,11.26,0,0,1,1.28-.56s.16.19.19.19l.11,0-.21-.22a2.06,2.06,0,0,0,.56-.65,2.17,2.17,0,0,0,.41.19s-.12.18-.09.16a1.58,1.58,0,0,1,.31.09,3.73,3.73,0,0,1-.56.2c-.1,0-.35.33-.38.38a.27.27,0,0,1-.12.09A1.66,1.66,0,0,1,29,9.3s-2.46.78-4.16-.25l-.28-.21s0-.37-.89-.89a.3.3,0,0,1-.26-.32,3.07,3.07,0,0,0,0-.68h0l.06-.11a2.11,2.11,0,0,1,.27-.18" transform="translate(-14.98 -1.9)"/><path class="cls-12" d="M21.6,6.53l0,0s0,.07,0,.07-.07-.09-.1-.08a.35.35,0,0,0-.17.54s0-.09.07-.05a.3.3,0,0,0,.26,0s.05,0,0,.05-.25,0-.28,0,.44.5.75.49a1.3,1.3,0,0,1,.48.07l-.05,0v0L23,8s0,.07.08.07.11,0,.11,0,0,.09.11.08.13.22.13.25a.1.1,0,0,0,0,.06s0,.08,0,.08a2,2,0,0,0-.32.17l-.14.21s0,.3,0,.3l.29.38.52.27h.6a5.8,5.8,0,0,0,1.25-.09,2.13,2.13,0,0,1-.76-.46s-.25-.23-.34-.23-.32-.25-.32-.25-.24-.11-.2-.26.06-.21,0-.25-.37-.11-.39-.13,0-.13.07-.24-.23-.15-.18-.3a5.3,5.3,0,0,0,0-.69,1.43,1.43,0,0,1-.5-.18,1.45,1.45,0,0,0-1.39-.22" transform="translate(-14.98 -1.9)"/><path class="cls-13" d="M22,7.23s.07.07.13,0a1.42,1.42,0,0,0-.08-.18l-.1,0s0,0,0,0,.28-.06.35-.18,0,0,0,.07.19.17.24.14a.15.15,0,0,0,.06-.22l0,0a.37.37,0,0,0-.25,0s-.07,0,0-.09,0-.09,0,0a.72.72,0,0,1-.22.17,1.4,1.4,0,0,1-.28.06s-.07-.07-.05-.07l.14-.05V6.71s0,0-.05,0-.09.07-.1.06,0-.06,0-.1l0-.1s.13-.05.18-.11a1.09,1.09,0,0,1,.26,0s0,0-.1,0-.23.05-.21.11h.29s.25-.14.08-.21a.7.7,0,0,0-.35,0s-.11.07-.15.07-.1.19-.1.23a.3.3,0,0,0,.06.18s.06,0,.07,0l.18,0a.48.48,0,0,0,.31-.17s0,0,0,.07-.22.22-.4.17a.8.8,0,0,0,.08.16s.06,0,.07.09" transform="translate(-14.98 -1.9)"/><path class="cls-13" d="M23.65,8s-.16.2,0,.19a.63.63,0,0,1,.52.25.87.87,0,0,1,.14.27s-.15-.24-.2-.21-.09.16,0,.19l.19.13.07.12s.17.07.18.11.31.1.37.24a1.86,1.86,0,0,1,.26.23,1.92,1.92,0,0,0,.22.18,1.54,1.54,0,0,1-.58,0c-.12-.08-.1-.15-.1-.15l.38,0-.08-.08s-.54,0-.56.06-.3-.13-.21-.16a1.45,1.45,0,0,1,.5-.11.11.11,0,0,0-.09,0c-.06,0-.46,0-.48.1s-.28-.14-.16-.19A1.23,1.23,0,0,1,24.27,9l-.05-.07S24,9,23.88,9s-.08-.12,0-.14.08-.05.07-.08v-.1l-.08-.11s.12,0,.08-.1a.18.18,0,0,0-.07-.08H24a.82.82,0,0,0-.24-.1c-.08,0-.24,0-.24-.08s0-.21.15-.21" transform="translate(-14.98 -1.9)"/><path class="cls-13" d="M23.22,8.1s.08.07.2-.18c0,0,.06,0,0,0a.45.45,0,0,0,.05.25s.08.12,0,.15,0,.08,0,.11-.46.27-.42.28a.1.1,0,0,1,.09.11s0,0,0,.05S23.08,9,23,9s0,.12,0,.12.21,0,.14.07-.06.15,0,.13.11,0,.09.09.08.17.14.15.09,0,.09.06,0,0,.17,0c0,0,.13,0,.15.11a.34.34,0,0,0,.26,0c.1-.06.11-.11.15,0s0,.08.1.08,0,0,0-.07.08,0,.1-.06.06,0,0-.07.13-.06.13.06.58.14.86.11c0,0-1.48.43-2.21-.13,0,0-.81-.53-.07-1.12l.21,0c.06,0,.14-.09,0-.1,0,0-.08-.07,0-.23a.16.16,0,0,0-.11-.05" transform="translate(-14.98 -1.9)"/><path class="cls-13" d="M23.41,8.55s-.18.13-.09.13a.43.43,0,0,1,.16.05s.16-.07,0-.16-.09,0-.09,0" transform="translate(-14.98 -1.9)"/><path class="cls-13" d="M23.52,8.86a.41.41,0,0,1,.23.08c.05.06.1.06,0,.08s-.21.05-.2,0,.11,0,.1-.06-.19,0-.12-.1" transform="translate(-14.98 -1.9)"/><path class="cls-13" d="M23.63,9.16s.24,0,.28,0,.09.16,0,.19-.27,0-.19-.07.15,0,.12-.06-.08,0-.14,0-.08,0-.05-.05" transform="translate(-14.98 -1.9)"/><path class="cls-13" d="M23.94,9.41s-.18,0-.13.05.16,0,.17.06a.22.22,0,0,0,.28,0c.07-.07,0-.13-.09-.16s-.11-.15-.23,0" transform="translate(-14.98 -1.9)"/><path class="cls-13" d="M23.74,9.62a.23.23,0,0,1,.24,0,.06.06,0,0,1,0,.08h0s0,.09-.11,0-.05.06-.08-.09" transform="translate(-14.98 -1.9)"/><path class="cls-13" d="M23.52,9.49s-.12,0,.06-.09a.16.16,0,0,1,.15,0s0,.13-.06.13" transform="translate(-14.98 -1.9)"/><path class="cls-13" d="M23.36,9.28s-.12,0,0,0,.13-.08.18-.05.14.1.09.12-.16.11-.26.08,0-.1,0-.11" transform="translate(-14.98 -1.9)"/><path class="cls-13" d="M23.44,9s-.06-.06-.07,0,0,.06-.09,0-.09.1,0,.16.14,0,.18-.06,0-.08,0-.13" transform="translate(-14.98 -1.9)"/><path class="cls-13" d="M23.28,8.74s-.1-.06-.1,0a.25.25,0,0,1,0,.12s0,.09.12,0,.21-.08.18-.14-.11,0-.18,0" transform="translate(-14.98 -1.9)"/><path class="cls-13" d="M21.57,7.2s-.14,0-.11,0a1.17,1.17,0,0,0,1.15.52s.06,0-.13.06A2.57,2.57,0,0,0,23,8a.35.35,0,0,0,.36-.33h0s0-.06-.06,0,0,.2-.27.21c0,0,.41-.42.19-.65,0,0-.07,0,0,.1a.48.48,0,0,1-.24.47s0,.06,0,.06-.09,0-.07,0,.09-.06.09-.09-.06,0-.19,0-.11.06-.16,0,0,0,.05-.07a.45.45,0,0,0,.42-.38s0-.06-.07,0a.11.11,0,0,0,0,0,.36.36,0,0,1-.34.28s0,0,.13-.08c0,0,0-.11-.1,0s-.15.08,0,0,.11-.11-.06,0a.45.45,0,0,1-.34.07c-.21,0-.21,0-.23-.07s0,0,.05,0a.86.86,0,0,1,.17,0s0,.06.24,0a1,1,0,0,0,.25-.12s0,0-.09,0-.23.07-.28,0,0,0,0,0,0,0-.09,0a.35.35,0,0,1-.22,0,.08.08,0,0,1-.1,0s-.11,0-.12-.07a.05.05,0,0,0-.08,0s-.05-.1-.1-.08,0-.07-.06,0,0,.1.05.1,0,0,0,0a.11.11,0,0,0,.11.06.11.11,0,0,0,.11.06s.06.06,0,.06a.63.63,0,0,1-.29-.2s-.06,0-.06,0-.08-.09,0-.12" transform="translate(-14.98 -1.9)"/><path class="cls-3" d="M21.86,6.75a.19.19,0,0,1,.2-.14l.13,0a.33.33,0,0,1-.15.11c-.08,0-.1.08-.18,0" transform="translate(-14.98 -1.9)"/><path class="cls-13" d="M22.36,7.1A.16.16,0,0,1,22.28,7s-.24,0-.17,0,.1.18.15.2.12,0,.17,0-.07-.13-.07-.13" transform="translate(-14.98 -1.9)"/><path class="cls-13" d="M22.62,7.18s-.08,0-.09,0,0,.07,0,.1a.07.07,0,0,0,.09.05c.05,0,.13,0,.14,0s0,0,0,0-.11,0,0,0,.09,0,.09,0a.21.21,0,0,0-.16-.13" transform="translate(-14.98 -1.9)"/><path class="cls-13" d="M23,7.05a.05.05,0,0,0,0,.07s0,.09,0,.08.14-.06,0-.15" transform="translate(-14.98 -1.9)"/><path class="cls-13" d="M23,7.27s-.05,0,0,0,0,0,0,.06,0,.07,0,0,.09-.09,0-.14" transform="translate(-14.98 -1.9)"/><path class="cls-13" d="M23,6.85s0,0,0,.06S23,7,23,7s0,0,0,0l0,0s.06,0,.06,0,0-.13-.1-.09,0,0-.05,0" transform="translate(-14.98 -1.9)"/><path class="cls-13" d="M23.24,7s0,0,0,0,0,.06,0,.06,0,0,0,0,0-.06,0-.06" transform="translate(-14.98 -1.9)"/><path class="cls-13" d="M21.73,7.15a2.09,2.09,0,0,0,.36.19c.07,0,0,0,0,0a.7.7,0,0,1-.34-.24" transform="translate(-14.98 -1.9)"/><path class="cls-13" d="M22.29,7.35l.13,0s0,0,0,0,.05.07.07.07,0,0,0,0a.13.13,0,0,1-.1-.09s-.17.06-.14,0" transform="translate(-14.98 -1.9)"/><path class="cls-13" d="M22.7,6.89s.06,0,.06.06,0,.07,0,0l.06,0s0,0,0,0,0,.08,0,.09,0,0,0,0,0-.07,0-.09,0,0,0-.06-.12,0-.14,0,0-.06,0,0,.11,0,.13,0,0,0,0,0,0,0,0,0,0,0,0,0S23,7,23,7a.14.14,0,0,1,0,.07s0,.05-.06.05-.25,0-.27,0,0,0,0-.06,0-.17.05-.16" transform="translate(-14.98 -1.9)"/><path class="cls-13" d="M22.43,6.7s-.07,0-.05,0,0,0,.09,0h.15s.05,0,.07,0,0,0,0,0,0,0,0,0,0,0,0,0a.11.11,0,0,0,0-.09,1.27,1.27,0,0,0-.28,0s0,0,0,0h.19s0,0,0,0-.12,0-.17,0" transform="translate(-14.98 -1.9)"/><path class="cls-13" d="M22.84,6.75s0,0,0,0,0,0,0,0-.08,0-.09,0,0-.06,0-.06,0,0,0,0" transform="translate(-14.98 -1.9)"/><path class="cls-3" d="M37.7,25a1.07,1.07,0,0,0-.25,0c-.15.28-.6,1.52-.6,1.52a3.2,3.2,0,0,1-1.44.18A11.53,11.53,0,0,0,36,25.67a3.14,3.14,0,0,0,.45-1.18h0a4.76,4.76,0,0,1-1.81-1.43A1,1,0,0,0,32.74,23a14.11,14.11,0,0,1-1.46,2.34A3.15,3.15,0,0,0,32.11,27a9,9,0,0,1-5.39,1.93h0A9,9,0,0,1,21.32,27a3.15,3.15,0,0,0,.83-1.63A13.42,13.42,0,0,1,20.7,23a1,1,0,0,0-1.93.05A4.76,4.76,0,0,1,17,24.48h0a3,3,0,0,0,.46,1.18A9.58,9.58,0,0,0,18,26.74a3.14,3.14,0,0,1-1.43-.18S16.13,25.32,16,25a1.15,1.15,0,0,0-.26,0s-.49-.07-.43.57c0,0,.25,2.15.26,2.3s.14.74,1.08.92a5.33,5.33,0,0,0,3-.33,11,11,0,0,0,7.1,2.6,10.77,10.77,0,0,0,7.09-2.6,5.34,5.34,0,0,0,3,.33c.94-.18,1.07-.77,1.08-.92s.26-2.3.26-2.3c.07-.64-.43-.57-.43-.57" transform="translate(-14.98 -1.9)"/><path class="cls-14" d="M34.67,23.29a4.29,4.29,0,0,1-.68,1.8A8.87,8.87,0,0,1,26.72,29h0a8.9,8.9,0,0,1-7.28-3.91,4.29,4.29,0,0,1-.68-1.8,4.67,4.67,0,0,1-1.68,1.31.66.66,0,0,0,.06.2A10.26,10.26,0,0,0,26.72,31h0A10.29,10.29,0,0,0,36.3,24.8a.65.65,0,0,0,.05-.2,4.67,4.67,0,0,1-1.68-1.31" transform="translate(-14.98 -1.9)"/><path class="cls-15" d="M19.91,25.47a2.65,2.65,0,0,0,.85-2A14.13,14.13,0,0,0,22,25.36a3,3,0,0,1-.77,1.48,7.73,7.73,0,0,1-1.31-1.37" transform="translate(-14.98 -1.9)"/><path class="cls-9" d="M19.32,24.56s-1.08-1.83.45-2c.63-.07.91.69.87,1.09a2.21,2.21,0,0,1-.31,1,1.27,1.27,0,0,0-1-.1" transform="translate(-14.98 -1.9)"/><path class="cls-1" d="M19.39,24.72a.91.91,0,0,1,.85.06,1.52,1.52,0,0,1-.43.54Z" transform="translate(-14.98 -1.9)"/><path class="cls-15" d="M16.65,26.74l.21.82s-.66-.34-1,.12c0,0-.34.68.62.89a4.44,4.44,0,0,0,2.94-.23,10,10,0,0,1-1.3-1.46,3.58,3.58,0,0,1-1.49-.14Z" transform="translate(-14.98 -1.9)"/><path class="cls-9" d="M15.71,27.7s.16-.68,1-.35a14.13,14.13,0,0,0-.78-2.21s-.46-.13-.49.31c0,0,.22,1.95.27,2.34Z" transform="translate(-14.98 -1.9)"/><path class="cls-2" d="M17.63,26.9a4.43,4.43,0,0,1-.51-.06l.25,1.62a.58.58,0,0,0,.47.24Z" transform="translate(-14.98 -1.9)"/><path class="cls-4" d="M18.46,28.55h-.64v.15a4.94,4.94,0,0,0,1-.16l-.48-1.4-.2-.26a1.27,1.27,0,0,1-.34,0l0,0s.38,1.26.46,1.35.37.27.23.27" transform="translate(-14.98 -1.9)"/><path class="cls-5" d="M18.4,27.21l-.06-.07.48,1.4a4.75,4.75,0,0,0,.64-.2,11.34,11.34,0,0,1-1.06-1.13" transform="translate(-14.98 -1.9)"/><path class="cls-2" d="M21.3,26.74a4.38,4.38,0,0,0-1.19-1.48l-.2.21a7.73,7.73,0,0,0,1.31,1.37.39.39,0,0,0,.08-.1" transform="translate(-14.98 -1.9)"/><path class="cls-4" d="M21.31,26.73l.27-.6c-.12-.28-1-1.54-1-1.54h0a3,3,0,0,1-.36.56l-.07.12c.11-.06,1.14,1.39,1.18,1.46h0" transform="translate(-14.98 -1.9)"/><path class="cls-5" d="M21.73,25l0,0a16.5,16.5,0,0,1-.95-1.55,1.55,1.55,0,0,1,0,.48V24l.74,1.07Z" transform="translate(-14.98 -1.9)"/><path class="cls-4" d="M17.89,28.7a.09.09,0,0,0-.07,0,1.41,1.41,0,0,1-.67-.33l-.26-1.55-.22-.05h0l.21.82-.08,0a2.32,2.32,0,0,1,0,.91l.26.24a4.61,4.61,0,0,0,.83,0" transform="translate(-14.98 -1.9)"/><path class="cls-5" d="M16.43,28.55l0-1.11a.55.55,0,0,0-.49.24s-.32.64.53.87" transform="translate(-14.98 -1.9)"/><path class="cls-2" d="M16.39,27.44l0,1.11.09,0,.36.09,0-.49-.1-.63a1.28,1.28,0,0,0-.43-.1" transform="translate(-14.98 -1.9)"/><path class="cls-4" d="M18.88,23.9l-1.63,1.17c.05.09.1.2.16.33l.09-.13L19,24.16a1.14,1.14,0,0,1-.09-.26" transform="translate(-14.98 -1.9)"/><path class="cls-5" d="M19.22,24.72l-.13-.27-.15-.27-1.41,1.06-.11.15.15.31.12.21Z" transform="translate(-14.98 -1.9)"/><path class="cls-2" d="M19.34,24.93l-.12-.21-1.54,1.15.12.21.06.1Z" transform="translate(-14.98 -1.9)"/><path class="cls-5" d="M17.86,26.18l.11.16c.51-.39,1-.81,1.47-1.25a1.74,1.74,0,0,1-.1-.16Z" transform="translate(-14.98 -1.9)"/><path class="cls-5" d="M19.74,25.5a11.83,11.83,0,0,1-1.45,1.29c.05.08.12.16.18.24a2.32,2.32,0,0,0,.36-.16L20,25.79l-.24-.29" transform="translate(-14.98 -1.9)"/><path class="cls-2" d="M18.69,27.3a15.06,15.06,0,0,0,1.52-1.25L20.14,26a17,17,0,0,1-1.56,1.19l.11.13" transform="translate(-14.98 -1.9)"/><path class="cls-4" d="M19.55,28.21A12.43,12.43,0,0,0,21,26.81l-.45-.43a8,8,0,0,1-1.32,1.47l.36.36" transform="translate(-14.98 -1.9)"/><path class="cls-5" d="M20.19,26a19,19,0,0,1-1.51,1.26l.28.32,1.38-1.41L20.19,26" transform="translate(-14.98 -1.9)"/><path class="cls-4" d="M18.43,27l.17.21A9,9,0,0,0,20.15,26L20,25.78A11.16,11.16,0,0,1,18.43,27" transform="translate(-14.98 -1.9)"/><path class="cls-4" d="M18.28,26.79a8.53,8.53,0,0,0,1.45-1.3l-.07-.09c-.07-.1-.15-.2-.22-.31l0-.05c-.09.16-1.41,1.27-1.44,1.3l.31.45" transform="translate(-14.98 -1.9)"/><path class="cls-1" d="M21.29,27.12s-1.08.42-1.2,1.28c0,0,1-1.15,1.26-1.08,0,0,.08,0,.06.07s-.82.72-.85,1.39c0,0,.81-1.24,1-1.21a.2.2,0,0,1,.15.32s.29-.19.43-.08a.2.2,0,0,1,0,.24.26.26,0,0,1,.36,0,6.16,6.16,0,0,0,3.24.93,8.82,8.82,0,0,1-4.45-1.89" transform="translate(-14.98 -1.9)"/><path class="cls-1" d="M32.14,27.12s1.08.42,1.2,1.28c0,0-1-1.15-1.27-1.08,0,0-.07,0,0,.07s.82.72.85,1.39c0,0-.82-1.24-1-1.21a.2.2,0,0,0-.15.32s-.28-.19-.42-.08a.2.2,0,0,0,0,.24.26.26,0,0,0-.36,0,6.22,6.22,0,0,1-3.24.93,8.82,8.82,0,0,0,4.45-1.89" transform="translate(-14.98 -1.9)"/><path class="cls-15" d="M33.52,25.47a2.61,2.61,0,0,1-.84-2,13.28,13.28,0,0,1-1.24,1.91,3,3,0,0,0,.77,1.48,7.08,7.08,0,0,0,1.31-1.37" transform="translate(-14.98 -1.9)"/><path class="cls-9" d="M34.11,24.56s1.09-1.83-.44-2c-.63-.07-.92.69-.87,1.09a2.1,2.1,0,0,0,.31,1,1.25,1.25,0,0,1,1-.1" transform="translate(-14.98 -1.9)"/><path class="cls-1" d="M34,24.72a.91.91,0,0,0-.85.06,1.44,1.44,0,0,0,.44.54Z" transform="translate(-14.98 -1.9)"/><path class="cls-15" d="M36.79,26.74l-.22.82s.66-.34,1,.12c0,0,.34.68-.62.89A4.44,4.44,0,0,1,34,28.34a11.3,11.3,0,0,0,1.31-1.46,3.52,3.52,0,0,0,1.48-.14Z" transform="translate(-14.98 -1.9)"/><path class="cls-9" d="M37.73,27.7s-.16-.68-1-.35a14.13,14.13,0,0,1,.78-2.21s.47-.13.49.31c0,0-.22,1.95-.27,2.34Z" transform="translate(-14.98 -1.9)"/><path class="cls-2" d="M35.8,26.9a4.43,4.43,0,0,0,.51-.06l-.25,1.62a.57.57,0,0,1-.46.24Z" transform="translate(-14.98 -1.9)"/><path class="cls-4" d="M35,28.55h.64v.15a4.85,4.85,0,0,1-1-.16l.48-1.4.19-.26a1.3,1.3,0,0,0,.34,0l0,0s-.38,1.26-.46,1.35-.36.27-.23.27" transform="translate(-14.98 -1.9)"/><path class="cls-5" d="M35,27.21l.06-.07-.48,1.4a5.24,5.24,0,0,1-.64-.2A11.34,11.34,0,0,0,35,27.21" transform="translate(-14.98 -1.9)"/><path class="cls-2" d="M32.13,26.74a4.5,4.5,0,0,1,1.19-1.48l.2.21a7.08,7.08,0,0,1-1.31,1.37l-.08-.1" transform="translate(-14.98 -1.9)"/><path class="cls-4" d="M32.12,26.73l-.26-.6a17.83,17.83,0,0,1,1-1.54h0a3,3,0,0,0,.36.56l.07.12c-.11-.06-1.14,1.39-1.19,1.46h0" transform="translate(-14.98 -1.9)"/><path class="cls-5" d="M31.71,25l0,0c.34-.5.66-1,.95-1.55a1.93,1.93,0,0,0,0,.48.28.28,0,0,0,0,.08l-.75,1.07Z" transform="translate(-14.98 -1.9)"/><path class="cls-4" d="M35.54,28.7a.11.11,0,0,1,.07,0,1.44,1.44,0,0,0,.68-.33l.26-1.55.21-.05h0l-.22.82.09,0a2.15,2.15,0,0,0,0,.91l-.27.24a4.58,4.58,0,0,1-.83,0" transform="translate(-14.98 -1.9)"/><path class="cls-5" d="M37,28.55l0-1.11a.55.55,0,0,1,.48.24s.32.64-.53.87" transform="translate(-14.98 -1.9)"/><path class="cls-2" d="M37.05,27.44l0,1.11-.09,0a2,2,0,0,1-.35.09l0-.49.09-.63a1.34,1.34,0,0,1,.44-.1" transform="translate(-14.98 -1.9)"/><path class="cls-4" d="M34.56,23.9l1.62,1.17c0,.09-.09.2-.16.33l-.09-.13-1.46-1.11.09-.26" transform="translate(-14.98 -1.9)"/><path class="cls-5" d="M34.21,24.72c0-.08.09-.17.13-.27l.15-.27,1.41,1.06.11.15-.15.31a2,2,0,0,0-.12.21Z" transform="translate(-14.98 -1.9)"/><path class="cls-2" d="M34.09,24.93a1.3,1.3,0,0,0,.12-.21l1.54,1.15-.11.21a.36.36,0,0,0-.07.1Z" transform="translate(-14.98 -1.9)"/><path class="cls-5" d="M35.57,26.18l-.11.16A17.48,17.48,0,0,1,34,25.09l.09-.16Z" transform="translate(-14.98 -1.9)"/><path class="cls-5" d="M33.69,25.5a11.92,11.92,0,0,0,1.46,1.29L35,27a2.43,2.43,0,0,1-.37-.16l-1.14-1.08.23-.29" transform="translate(-14.98 -1.9)"/><path class="cls-2" d="M34.75,27.3a13.12,13.12,0,0,1-1.52-1.25l.06-.07a18.43,18.43,0,0,0,1.56,1.19,1.47,1.47,0,0,1-.1.13" transform="translate(-14.98 -1.9)"/><path class="cls-4" d="M33.88,28.21a14.33,14.33,0,0,1-1.41-1.4l.45-.43a8.4,8.4,0,0,0,1.32,1.47l-.36.36" transform="translate(-14.98 -1.9)"/><path class="cls-5" d="M33.25,26a18.82,18.82,0,0,0,1.5,1.26l-.27.32c-.24-.23-1.21-1.23-1.39-1.41l.16-.17" transform="translate(-14.98 -1.9)"/><path class="cls-4" d="M35,27l-.17.21A9.37,9.37,0,0,1,33.29,26l.18-.21A11.08,11.08,0,0,0,35,27" transform="translate(-14.98 -1.9)"/><path class="cls-4" d="M35.15,26.79a8.93,8.93,0,0,1-1.45-1.3l.07-.09c.07-.1.15-.2.22-.31L34,25c.08.16,1.4,1.27,1.43,1.3s-.19.29-.31.45" transform="translate(-14.98 -1.9)"/><path class="cls-13" d="M18.14,24.62l-.21.1a.22.22,0,0,0-.09.07.06.06,0,0,0,0,.07h0l0-.07,0-.07a.43.43,0,0,1,0-.07l0-.07h0s0,0,.06.05l.1,0,.48-.23.09-.07a.09.09,0,0,0,0-.07h0l0,.07,0,.07,0,.07,0,.06,0,0s0,0-.06-.05l-.11,0-.21.1.14.29.21-.1a.22.22,0,0,0,.09-.07.06.06,0,0,0,0-.07h0l0,.07,0,.07a.16.16,0,0,1,0,.07l0,.06h0a.1.1,0,0,0-.07,0l-.1,0-.48.24a.24.24,0,0,0-.08.06.08.08,0,0,0,0,.08h0l0-.07a.25.25,0,0,0,0-.07l0-.07,0-.07h0A.08.08,0,0,0,18,25a.19.19,0,0,0,.1,0l.22-.11Z" transform="translate(-14.98 -1.9)"/><path class="cls-13" d="M19.11,25.41l-.16.1v0A.22.22,0,0,0,19,25.4a.15.15,0,0,0,0-.09l-.06-.09-.3.18.05.08s0,.05.07.05a.12.12,0,0,0,.08,0h0l-.23.14h0a.15.15,0,0,0,0-.07.11.11,0,0,0,0-.08l-.06-.08-.2.12s-.05,0-.06.07a.08.08,0,0,0,0,.08.11.11,0,0,0,.08.07.29.29,0,0,0,.13,0h0l-.19.1c0-.05-.05-.09-.06-.12l-.06-.08a1.53,1.53,0,0,0-.13-.21h0a.07.07,0,0,0,.06,0,.15.15,0,0,0,.11,0l.45-.27a.3.3,0,0,0,.08-.08.09.09,0,0,0,0-.07h0a.43.43,0,0,1,0,.07l.08.13.08.13.05.08" transform="translate(-14.98 -1.9)"/><path class="cls-13" d="M19.17,26.29l-.19.15a.27.27,0,0,0-.07.08.06.06,0,0,0,0,.07l0,0a.43.43,0,0,1,0-.07l-.05-.06,0-.06s0,0-.05-.05l0,0a.09.09,0,0,0,.07,0l.09-.05.42-.33a.18.18,0,0,0,.07-.08.08.08,0,0,0,0-.08h0l.05.06,0,.06.05.06,0,.06h0a0,0,0,0,0-.06,0l-.1.05-.19.14.2.26.19-.15a.19.19,0,0,0,.07-.08.06.06,0,0,0,0-.07l0,0,0,.07.05.06.05.06.05.06h0a.08.08,0,0,0-.07,0,.18.18,0,0,0-.09.06l-.42.32a.16.16,0,0,0-.07.09.06.06,0,0,0,0,.07h0l-.05-.06,0-.06-.05-.06L19,26.73h0a.06.06,0,0,0,.07,0,.2.2,0,0,0,.09,0l.19-.15Z" transform="translate(-14.98 -1.9)"/><path class="cls-13" d="M19.66,27l.14.15.19-.32Zm-.17.09h0l-.07,0,0,0a.06.06,0,0,0,0,0l0,0,0,0,0,0,0,0,0,0,0,0a.1.1,0,0,0,.07,0l.11,0,.66-.34.06.06-.39.64a.36.36,0,0,0,0,.11.06.06,0,0,0,0,.07h0l0-.05-.05-.05s0,0,0,0,0,0-.05-.05l0,0h.07l0,0,0-.05.07-.1L19.6,27Z" transform="translate(-14.98 -1.9)"/><path class="cls-13" d="M20.5,27.17l0,0a.16.16,0,0,0-.11-.05.15.15,0,0,0-.11,0h0l.15-.16h0a0,0,0,0,0,0,0s0,0,0,0l.34.32h.06l-.15.17v0a.13.13,0,0,0,0-.1.2.2,0,0,0-.06-.11l0,0-.44.47-.06.09a.14.14,0,0,0,0,.07v0l-.06-.06L20,27.81l-.06,0-.06-.05,0,0a.1.1,0,0,0,.07,0,.22.22,0,0,0,.09-.07Z" transform="translate(-14.98 -1.9)"/><path class="cls-13" d="M20.76,27.94l-.15.19a.31.31,0,0,0-.05.1.11.11,0,0,0,0,.07l0,0-.05-.05-.06-.05-.07,0-.06-.05h.09A.3.3,0,0,0,20.5,28l.33-.41a.47.47,0,0,0,.05-.1.09.09,0,0,0,0-.07l0,0,.06,0,.06.05.06.05.06,0v0a.11.11,0,0,0-.08,0,.27.27,0,0,0-.08.07l-.14.19.25.2.14-.19a.15.15,0,0,0,.06-.09.09.09,0,0,0,0-.07v0l.06.05.06,0,.07.05.06,0,0,0a.09.09,0,0,0-.07,0,.27.27,0,0,0-.08.07l-.33.42a.31.31,0,0,0-.05.1,0,0,0,0,0,0,.06v0l-.06-.05-.06,0-.06-.05-.06-.05v0a.08.08,0,0,0,.08,0,.18.18,0,0,0,.08-.07l.15-.19Z" transform="translate(-14.98 -1.9)"/><path class="cls-13" d="M22.28,28.43l-.1.16h0a.36.36,0,0,0,0-.11.13.13,0,0,0-.06-.07l-.1-.06-.18.3.08.05a.12.12,0,0,0,.08,0s0,0,.07-.05h0l-.13.23h0a.08.08,0,0,0,0-.08.07.07,0,0,0,0-.06l-.09,0-.12.2a.36.36,0,0,0,0,.11.06.06,0,0,0,0,.06l0,0h0L21.55,29l-.06,0-.07,0v0a0,0,0,0,0,.07,0,.3.3,0,0,0,.08-.08l.27-.46a.3.3,0,0,0,0-.1.08.08,0,0,0,0-.06l0,0,.07,0,.13.08.13.08.08.05" transform="translate(-14.98 -1.9)"/><path class="cls-13" d="M22.32,28.94a.75.75,0,0,0-.09.29.15.15,0,0,0,.13.17.15.15,0,0,0,.13,0,.88.88,0,0,0,.18-.25.61.61,0,0,0,.08-.3.15.15,0,0,0-.25-.12.64.64,0,0,0-.18.25m0,.49a.27.27,0,0,1-.16-.22.52.52,0,0,1,.06-.34.5.5,0,0,1,.23-.25.28.28,0,0,1,.28,0,.27.27,0,0,1,.16.22.59.59,0,0,1-.29.59.28.28,0,0,1-.28,0" transform="translate(-14.98 -1.9)"/><path class="cls-13" d="M23.07,29.47a.45.45,0,0,0,0,.16.09.09,0,0,0,.06.08h.1a.34.34,0,0,0,.12-.06l.18-.49a.36.36,0,0,0,0-.1.06.06,0,0,0-.05-.06v0l.07,0,.07,0,.08,0,.07,0v0a.06.06,0,0,0-.07,0,.24.24,0,0,0-.06.09l-.18.5a.14.14,0,0,0,0,.11.08.08,0,0,0,0,.06v0l-.05,0-.05,0h-.05l-.06,0,0-.1-.13.05a.28.28,0,0,1-.13,0,.2.2,0,0,1-.12-.13.42.42,0,0,1,0-.22l.15-.4a.2.2,0,0,0,0-.11s0,0-.05,0v0l.07,0,.08,0,.07,0,.07,0v0a.07.07,0,0,0-.07,0s0,.06-.06.09Z" transform="translate(-14.98 -1.9)"/><path class="cls-13" d="M23.78,29.82a.37.37,0,0,0,0,.11.1.1,0,0,0,.06.05v0l-.05,0h-.15v0a.09.09,0,0,0,.07,0,.21.21,0,0,0,0-.1l.16-.57,0-.06a.1.1,0,0,0,0-.05v0h.09l.05,0h0l.24.66.11-.39a.49.49,0,0,0,0-.12.1.1,0,0,0-.06,0v0l.05,0h.15v0a.07.07,0,0,0-.07,0,.31.31,0,0,0-.05.1l-.18.68h0l-.28-.8Z" transform="translate(-14.98 -1.9)"/><path class="cls-13" d="M24.84,29.41l-.11.63a.17.17,0,0,0,0,.1.1.1,0,0,0,.07,0,.19.19,0,0,0,.19-.07.42.42,0,0,0,.12-.26.58.58,0,0,0,0-.29.18.18,0,0,0-.15-.13Zm-.37.76v0a.11.11,0,0,0,.07,0,.3.3,0,0,0,0-.1l.09-.52a.2.2,0,0,0,0-.11.06.06,0,0,0-.06-.05v0l.32.05a.39.39,0,0,1,.26.17.53.53,0,0,1,.05.35.48.48,0,0,1-.15.28.34.34,0,0,1-.29.06Z" transform="translate(-14.98 -1.9)"/><path class="cls-13" d="M25.94,29.5l0,.19h0a.21.21,0,0,0,0-.11.12.12,0,0,0-.08,0h-.11l0,.35h.1a.09.09,0,0,0,.11-.07v0h0l0,.26h0a.16.16,0,0,0,0-.08.07.07,0,0,0-.06,0h-.1l0,.24a.14.14,0,0,0,0,.09.11.11,0,0,0,.07,0,.14.14,0,0,0,.11,0,.24.24,0,0,0,.07-.12h0l0,.2h-.23l-.25,0h0v0a.07.07,0,0,0,.06,0,.19.19,0,0,0,0-.1l.05-.53a.14.14,0,0,0,0-.11.07.07,0,0,0-.05,0v0h.08l.15,0h.25" transform="translate(-14.98 -1.9)"/><path class="cls-13" d="M26.32,29.57v.64a.12.12,0,0,0,0,.1.08.08,0,0,0,.07,0,.21.21,0,0,0,.18-.09.47.47,0,0,0,.07-.28.49.49,0,0,0-.06-.29.19.19,0,0,0-.17-.1Zm-.24.81v0a.08.08,0,0,0,.06,0,.2.2,0,0,0,0-.11l0-.53a.36.36,0,0,0,0-.1.06.06,0,0,0-.06,0v0h.33a.37.37,0,0,1,.28.13.54.54,0,0,1,.1.33.51.51,0,0,1-.11.31.34.34,0,0,1-.27.1Z" transform="translate(-14.98 -1.9)"/><path class="cls-13" d="M27.58,30.19a.45.45,0,0,0,0,.11.09.09,0,0,0,.07,0v0h-.31v0a.07.07,0,0,0,.06,0,.21.21,0,0,0,0-.11l0-.53a.17.17,0,0,0,0-.1.05.05,0,0,0-.06,0v0h.3v0a.07.07,0,0,0-.06,0,.14.14,0,0,0,0,.11Z" transform="translate(-14.98 -1.9)"/><path class="cls-13" d="M28,29.5h0a.16.16,0,0,0-.11,0,.11.11,0,0,0,0,.11h0l0-.22h0a0,0,0,0,0,0,0h0l.45-.06h0s0,0,0,0h0l0,.22h0a.17.17,0,0,0-.06-.1.17.17,0,0,0-.12,0h-.05l.09.64a.2.2,0,0,0,0,.11.11.11,0,0,0,.07,0v0H28v0s.05,0,.06-.05a.2.2,0,0,0,0-.11Z" transform="translate(-14.98 -1.9)"/><path class="cls-13" d="M29.09,29.85a.35.35,0,0,0,.07.15.09.09,0,0,0,.1,0,.16.16,0,0,0,.08-.06l.06-.11-.14-.5a.18.18,0,0,0,0-.1.07.07,0,0,0-.07,0v0h.08l.07,0,.08,0,.07,0v0s0,0-.05.05a.41.41,0,0,0,0,.11l.14.51a.18.18,0,0,0,0,.1.07.07,0,0,0,.07,0v0h-.05l-.06,0H29.5l-.06,0,0-.11a.33.33,0,0,1-.07.13.24.24,0,0,1-.11.06.19.19,0,0,1-.18,0,.42.42,0,0,1-.1-.2l-.11-.41a.3.3,0,0,0,0-.1.08.08,0,0,0-.08,0v0h.07l.08,0,.07,0,.08,0v0l-.05.05a.21.21,0,0,0,0,.11Z" transform="translate(-14.98 -1.9)"/><path class="cls-13" d="M29.76,29.08l.12.34h.05a.14.14,0,0,0,.07-.08.27.27,0,0,0-.1-.26.11.11,0,0,0-.11,0h0m.06-.08A.25.25,0,0,1,30,29a.23.23,0,0,1,.12.15.31.31,0,0,1,0,.19.18.18,0,0,1-.13.11l-.05,0H29.9l.08.21a.31.31,0,0,0,.05.1.11.11,0,0,0,.08,0v0l-.07,0-.07,0-.07,0-.08,0v0a.08.08,0,0,0,0-.06.2.2,0,0,0,0-.11l-.18-.5a.12.12,0,0,0-.05-.09.1.1,0,0,0-.07,0v0Z" transform="translate(-14.98 -1.9)"/><path class="cls-13" d="M30.45,29.21a.78.78,0,0,0,.17.26.15.15,0,0,0,.21,0,.14.14,0,0,0,.05-.13.84.84,0,0,0-.08-.3.85.85,0,0,0-.17-.25.16.16,0,0,0-.17,0,.15.15,0,0,0-.09.16.74.74,0,0,0,.08.29m.37.34a.31.31,0,0,1-.28,0,.63.63,0,0,1-.28-.6.32.32,0,0,1,.46-.21.51.51,0,0,1,.22.26.56.56,0,0,1,0,.34.3.3,0,0,1-.17.22" transform="translate(-14.98 -1.9)"/><path class="cls-13" d="M31.25,29.11a.27.27,0,0,0,.07.08.08.08,0,0,0,.08,0v0l-.05,0,0,0-.05,0,0,0v0a.08.08,0,0,0,0-.07.19.19,0,0,0,0-.1l-.3-.5-.06,0H30.8v0l0,0,0,0,0,0,0,0,.64.3-.21-.36a.18.18,0,0,0-.07-.08.09.09,0,0,0-.07,0v0l0,0,.05,0,0,0,.05,0v0a.07.07,0,0,0,0,.06.18.18,0,0,0,0,.1l.35.62h0L31,28.66Z" transform="translate(-14.98 -1.9)"/><path class="cls-13" d="M32,27.87l0,0a.23.23,0,0,0-.07.1.2.2,0,0,0,0,.11h0l-.13-.18h.07l.37-.28,0,0v0h0l.14.18h0a.17.17,0,0,0-.1-.06.21.21,0,0,0-.11,0l0,0,.39.51a.2.2,0,0,0,.08.08.06.06,0,0,0,.07,0l0,0-.07,0-.06,0-.06.05-.06.05v0a.11.11,0,0,0,0-.07.31.31,0,0,0,0-.1Z" transform="translate(-14.98 -1.9)"/><path class="cls-13" d="M32.84,27.74l.16.18a.27.27,0,0,0,.08.07.06.06,0,0,0,.07,0l0,0-.06.05-.06.05-.06.05-.05.06,0,0a.07.07,0,0,0,0-.07.31.31,0,0,0,0-.1l-.35-.39-.09-.07a.09.09,0,0,0-.07,0h0l.06-.05.06-.05.06-.06a.12.12,0,0,0,.05-.05l0,0a.06.06,0,0,0,0,.07.15.15,0,0,0,.06.09l.15.18.24-.22-.15-.17-.09-.07a.07.07,0,0,0-.07,0l0,0,.06,0,.06-.05.06-.05,0-.06,0,0a.07.07,0,0,0,0,.07.19.19,0,0,0,.05.09l.35.4.09.07a.06.06,0,0,0,.07,0l0,0-.06.05-.06.05-.06,0-.05.06,0,0a.09.09,0,0,0,0-.07.35.35,0,0,0-.06-.09l-.16-.18Z" transform="translate(-14.98 -1.9)"/><path class="cls-13" d="M33.37,26.6l.13.13h0a.21.21,0,0,0-.1,0,.1.1,0,0,0-.09,0l-.08.08.25.24.07-.06a.1.1,0,0,0,0-.16h0l.19.18v0a.11.11,0,0,0-.08,0,.09.09,0,0,0-.07,0l-.07.07.17.17a.15.15,0,0,0,.09,0,.11.11,0,0,0,.07,0,.13.13,0,0,0,0-.1.28.28,0,0,0,0-.13h0l.14.16-.09.09-.07.07-.17.18h0l0,0a.06.06,0,0,0,0-.07.24.24,0,0,0-.06-.09L33.21,27l-.09-.06s-.06,0-.07,0l0,0,.06-.06.1-.1.11-.11.07-.07" transform="translate(-14.98 -1.9)"/><path class="cls-13" d="M34.12,26h0A.28.28,0,0,0,34,26a.12.12,0,0,0-.1.05.08.08,0,0,0,0,.08.12.12,0,0,0,0,.08.28.28,0,0,0,.22,0h.24a.23.23,0,0,1,.12.06.28.28,0,0,1,.11.17.21.21,0,0,1,0,.17l-.07.05,0,0s0,0,0,0v0l0,0-.05,0-.07-.06,0,0h0a.3.3,0,0,0,.16.05.14.14,0,0,0,.12-.06.08.08,0,0,0,0-.08.11.11,0,0,0-.05-.09.27.27,0,0,0-.2,0h-.06a.4.4,0,0,1-.19,0,.29.29,0,0,1-.12-.07.23.23,0,0,1-.1-.15.12.12,0,0,1,0-.14.12.12,0,0,1,0-.05l0,0v0s0,0,0,0h0l0,0L34,26l.05,0,0,0" transform="translate(-14.98 -1.9)"/><path class="cls-13" d="M34.37,25.33l.15.11h0a.18.18,0,0,0-.1,0,.09.09,0,0,0-.08.05l-.07.09.29.21.05-.08a.13.13,0,0,0,0-.08.12.12,0,0,0-.05-.07h0l.22.15h0l-.08,0-.06.05-.06.08.2.13a.1.1,0,0,0,.09,0s0,0,.06-.05a.17.17,0,0,0,0-.1.23.23,0,0,0-.06-.12v0l.16.14-.08.11-.06.08s-.07.11-.14.2h0l0,0a.08.08,0,0,0,0-.07.3.3,0,0,0-.08-.08l-.43-.3a.24.24,0,0,0-.1-.05.08.08,0,0,0-.07,0h0l0-.07.09-.12a1.05,1.05,0,0,1,.08-.13l.06-.08" transform="translate(-14.98 -1.9)"/><path class="cls-13" d="M35,25.36l.11-.17-.36-.1Zm.13.14h0l.06.06h0l0,0h0l0,0s0,0,0,0l0,0s0,0,0,0l0,0a.08.08,0,0,0,0-.07l-.07-.09L34.56,25l0-.07.72.2.11,0a.09.09,0,0,0,.07,0h0l0,.06,0,.06,0,.06,0,.06,0,0a0,0,0,0,0,0,0s0,0,0,0l0,0-.06,0-.12,0-.12.2Z" transform="translate(-14.98 -1.9)"/><path class="cls-13" d="M35.18,24.36v0a.22.22,0,0,0-.14,0,.13.13,0,0,0-.09.06.11.11,0,0,0,0,.08.11.11,0,0,0,.06.07.29.29,0,0,0,.22,0h0a.41.41,0,0,1,.19-.05.31.31,0,0,1,.13,0,.25.25,0,0,1,.13.14.19.19,0,0,1,0,.18l-.05.06,0,.05s0,0,0,0,0,0,0,0h0l0,0-.06,0-.08,0h0v0a.3.3,0,0,0,.16,0,.12.12,0,0,0,.11-.07.12.12,0,0,0,0-.1.13.13,0,0,0-.06-.07.27.27,0,0,0-.2,0l-.06,0a.39.39,0,0,1-.18,0,.23.23,0,0,1-.14,0,.23.23,0,0,1-.12-.12.15.15,0,0,1,0-.16.1.1,0,0,1,0-.05.1.1,0,0,0,0-.05h0v0h0l0,0,.06,0,.06,0,0,0" transform="translate(-14.98 -1.9)"/><path class="cls-13" d="M26.74,28h0" transform="translate(-14.98 -1.9)"/><path class="cls-3" d="M30.88,12.8v0" transform="translate(-14.98 -1.9)"/><polygon class="cls-2" points="11.31 17.44 9.09 17.44 8.4 15.33 7.72 17.44 5.5 17.44 7.29 18.75 6.61 20.86 8.4 19.55 10.2 20.86 9.51 18.75 11.31 17.44"/><path class="cls-3" d="M25.22,22.83l-1.84-1.34-1.84,1.34.71-2.17L20.4,19.32h2.28l.7-2.16.71,2.16h2.27l-1.84,1.34Zm-1.84-1.4,1.76,1.28-.68-2.07,1.76-1.27H24.05l-.67-2.06-.67,2.06H20.55l1.75,1.27v0l-.66,2Z" transform="translate(-14.98 -1.9)"/><polygon class="cls-13" points="8.4 15.94 8.95 17.63 10.74 17.63 9.29 18.68 9.85 20.37 8.4 19.32 6.96 20.37 7.51 18.68 6.07 17.63 7.85 17.63 8.4 15.94"/><polygon class="cls-2" points="18.04 17.44 15.81 17.44 15.13 15.33 14.44 17.44 12.22 17.44 14.02 18.75 13.33 20.86 15.13 19.55 16.92 20.86 16.24 18.75 18.04 17.44"/><path class="cls-3" d="M32,22.83l-1.84-1.34-1.84,1.34.7-2.17-1.84-1.34h2.28l.7-2.16.7,2.16h2.28l-1.85,1.34Zm-1.84-1.4,1.75,1.28-.67-2.07h0l1.74-1.26H30.78l-.67-2.06-.67,2.06H27.27L29,20.64v0l-.66,2Z" transform="translate(-14.98 -1.9)"/><polygon class="cls-13" points="15.13 15.94 15.68 17.63 17.46 17.63 16.02 18.68 16.57 20.37 15.13 19.32 13.69 20.37 14.24 18.68 12.8 17.63 14.58 17.63 15.13 15.94"/><polygon class="cls-2" points="14.67 21.59 12.45 21.59 11.77 19.48 11.08 21.59 8.86 21.59 10.65 22.9 9.97 25.01 11.77 23.7 13.56 25.01 12.88 22.9 14.67 21.59"/><path class="cls-3" d="M28.59,27l-1.84-1.34L24.9,27l.71-2.17-1.84-1.33H26l.71-2.17.7,2.17h2.27l-1.84,1.33Zm-1.84-1.4,1.75,1.28-.67-2.07h0l1.74-1.26H27.41l-.66-2.06-.67,2.06H23.91l1.75,1.27v0L25,26.86Z" transform="translate(-14.98 -1.9)"/><polygon class="cls-13" points="11.77 20.09 12.31 21.78 14.1 21.78 12.65 22.83 13.21 24.52 11.77 23.48 10.32 24.52 10.87 22.83 9.43 21.78 11.21 21.78 11.77 20.09"/><path class="cls-3" d="M32.89,13.3l-.26.1c-.17.07-.55,0-.65,0a.55.55,0,0,0-.1-.72.61.61,0,0,1-.23-.3,1.15,1.15,0,0,0,0,.58s-.07,0-.14-.11a2,2,0,0,0-.59-.5.33.33,0,0,0,0,.37l0,.08-.35-.17-.34-.14a.48.48,0,0,0,.07.35,10.32,10.32,0,0,0-1.11.06s-.14,0-.17-.09h.23a1.76,1.76,0,0,0,.55-.22s.08-.07.08-.11A2.44,2.44,0,0,0,29,12.2s.21-.22.41-.14c0,0,.06,0,0-.06a1.2,1.2,0,0,0-1,0,2.74,2.74,0,0,1-.64.09c-.06,0-.84.14-1,.58-.05.12-.3.9,1.25.79.92-.06,1.47-.12,1.47-.12a4.48,4.48,0,0,1,1.27.07s.47.21.12.29-1.69-.12-2.17-.05-1.6.18-1.91.22a1.82,1.82,0,0,1-.77-.05.76.76,0,0,0-.15-.48.59.59,0,0,0,.34-.5.51.51,0,0,0-.18-.09s-.12,0-.05-.08a.15.15,0,0,0,0-.2.85.85,0,0,0-.11-.26c-.06-.06-.09-.06-.1,0a.29.29,0,0,0-.3-.2s0,0,0,0-.24-.29-.35-.16l-.13.12s-.23-.21-.27-.11-.13.15-.13.16-.06-.07-.1-.06-.08,0-.11.16a.26.26,0,0,0-.21,0s0,0-.09.1-.22.54-.06.63a.66.66,0,0,0-.06.2c-.47.22-.42.37-.44.47a.56.56,0,0,0-.27.44s-.05.15-.15,0a1.55,1.55,0,0,0-.24-.27,1.72,1.72,0,0,1-.31-.48.37.37,0,0,1,.08-.36.35.35,0,0,0-.06-.24.39.39,0,0,0-.32-.42s0,.15,0,.2,0,0,0,0a.8.8,0,0,0-.76-.25s.29.22.29.35a.38.38,0,0,0-.27-.07.53.53,0,0,0-.53,0,.79.79,0,0,1,.29.18.22.22,0,0,0,.08.24.7.7,0,0,0-.51.23s.38.06.38.11,0,.35.32.34c.12,0,.14,0,.14.07s-.08.13.06.17a.15.15,0,0,0,.09.18.39.39,0,0,0,.1.31.64.64,0,0,1,.16.29.07.07,0,0,0,.09,0s.07.13.1.12a.23.23,0,0,1,.12.08s.1.15.16.15.15,0,.18,0h.08a.1.1,0,0,0,.06.09.48.48,0,0,0,.17,0,.54.54,0,0,0,.21,0c.07,0,.12,0,.13,0a.08.08,0,0,1,0,0,3.66,3.66,0,0,1-1,.51.26.26,0,0,0-.17-.3.53.53,0,0,0-.44-.08l.08,0c.06,0,.1.07.09.11a1.25,1.25,0,0,0-.27-.1.59.59,0,0,0-.5,0,.52.52,0,0,1,.23.07s-.1.13,0,.2a.56.56,0,0,0-.46.24s.24,0,.28,0a.22.22,0,0,0,.12.29h0s-.2.11-.19.2a.43.43,0,0,1,.16,0,.28.28,0,0,1,.13,0l.05,0a.15.15,0,0,0,.09.1,1,1,0,0,0,.39-.05s.08,0,.08,0a.71.71,0,0,0,.2,0,.55.55,0,0,0,.57,0s0,0,.17,0a.2.2,0,0,0,.2-.1h.09s0,.05.17,0l.08,0a.84.84,0,0,0,.39-.19.66.66,0,0,0,.46-.19.66.66,0,0,0,.63-.52.27.27,0,0,0,.34-.12A1.65,1.65,0,0,0,26.47,15c.77-.42.85-.39.85-.39s.06,0,0,.09-.12.12,0,.46c0,0,.06.11.05.13a.19.19,0,0,0,0,.09l-.39.11-.1,0a.33.33,0,0,0-.32-.25.75.75,0,0,0-.36-.05.89.89,0,0,1,.08.17.36.36,0,0,0-.36,0h-.2s-.26,0-.26.22c0,0,.18-.08.27,0s0,.14.13.15-.38.27-.31.47a.27.27,0,0,1,.12-.06s.07,0,.17.07a.28.28,0,0,0,.27.11.44.44,0,0,0,0,.29.62.62,0,0,1,.19-.12l.09,0a.22.22,0,0,1,.14,0,.45.45,0,0,0,.33-.18.33.33,0,0,0,.33,0s.16.14.45,0a.54.54,0,0,0,.43-.09.87.87,0,0,0,.55-.24s.23,0,.26-.17,0-.13,0-.18,0-.06-.19-.23-.28-.45-.09-.51c0,0,.06,0,.11.15s.32.2.32.2a3.73,3.73,0,0,0,1.45.06.25.25,0,0,1,.16.14,1.35,1.35,0,0,0,.4.39.61.61,0,0,0-.42.19.45.45,0,0,0-.11.47c.06-.14.14-.15.14-.15a1,1,0,0,0,0,.3.59.59,0,0,0,.32.39s0-.22,0-.26.08,0,.1-.08l0,.05s.14.44.49.43a.65.65,0,0,1-.05-.2.41.41,0,0,1,0-.08.33.33,0,0,1,.13-.07s.09.06.13.07a.34.34,0,0,0,.2,0L32,16.7a.42.42,0,0,0,.11-.58A.38.38,0,0,0,32,16a.55.55,0,0,0-.05-.18l.09,0s.06,0,0-.14a1.17,1.17,0,0,0-.18-.73s0-.43-.63-.5c0,0-.14-.39-.74,0a.49.49,0,0,1-.63-.22l1.44-.07s.18.05.23,0a.46.46,0,0,1,.23.06c.08,0,.49.17.59-.15l-.12,0s-.12,0-.27-.19c0,0,.6.1.9-.67M28.44,13s-.79.08-.93.08-.44-.06-.36-.28c0,0,.05-.23.52-.21a1,1,0,0,1,.66.31.52.52,0,0,1,.11.1" transform="translate(-14.98 -1.9)"/><path class="cls-6" d="M27.32,14.53h0c-.09,0-.78.41-1.06.52a1.77,1.77,0,0,1-.93.19h0s-.19.22-.31.12a.19.19,0,0,0,0-.13l-.07.19V15.3a.82.82,0,0,1-.3.49,2.18,2.18,0,0,0,.11-.44s-.14.52-.32.54c0,0,.11-.4.14-.45a1.06,1.06,0,0,0-.18.35s-.11.18-.17.2a2.37,2.37,0,0,0,.11-.46s-.13.5-.35.56a1.79,1.79,0,0,0,.19-.57s-.07,0-.07.11,0,.33-.22.41a.44.44,0,0,1-.22.15.34.34,0,0,0,.16-.35s-.07.33-.32.41h-.09a.92.92,0,0,0,.26-.52s0,0-.06.08a1.46,1.46,0,0,1-.41.54,3.78,3.78,0,0,0,.17-.35l-.15.22a.38.38,0,0,1-.32.18s.25-.35.27-.4-.36.45-.5.44a1.24,1.24,0,0,0,.19-.26s-.21.24-.33.26.2.14-.19.07a.08.08,0,0,0,.05-.07s.23-.13.23-.17l-.28.13c-.16.08-.19,0-.17,0s0-.12-.18.06a.42.42,0,0,0-.17.1.52.52,0,0,1-.18,0s-.05-.12-.13-.06l-.09,0a.69.69,0,0,0-.2,0,.28.28,0,0,1,.23-.1s0,0,0-.07.12,0,.14-.1.23.07.32-.1a.58.58,0,0,1-.32,0c-.12,0-.15.2-.28.1s-.08-.14,0-.2.05-.07-.24-.08a.4.4,0,0,1,.31-.11.47.47,0,0,1,.2,0,1,1,0,0,1,.23.11c.06,0,.11.05.08,0a.69.69,0,0,0-.43-.18s0-.15.12-.14.09,0,0,0a.61.61,0,0,0-.16-.09.38.38,0,0,1,.33.06s.17-.1.39.29a.57.57,0,0,0,0-.22s0,0,.06,0,0-.05-.06-.05v0l-.11-.08a.4.4,0,0,1,.28.08.25.25,0,0,1,.15.33v0s0,.07.12,0a9.51,9.51,0,0,0,1-.46.82.82,0,0,1,.25-.2,3.63,3.63,0,0,1,.4-.11.23.23,0,0,0,.12-.1.34.34,0,0,1-.24.05,2.22,2.22,0,0,0-.49.18l0-.06-.14,0s-.34.11-.42,0a.68.68,0,0,0,.23-.18.75.75,0,0,1-.62,0s.24-.09.28-.19-.36.15-.54,0l-.08-.09a1.36,1.36,0,0,1,.39-.12,1.36,1.36,0,0,0-.45,0l.32-.08a.76.76,0,0,1-.42,0c-.06,0-.06-.05-.06-.05h.16a1,1,0,0,0,.29,0,1.15,1.15,0,0,1-.49,0,1.82,1.82,0,0,1,.4-.11l-.29,0a.47.47,0,0,1,.15-.06,1.22,1.22,0,0,0-.27,0s-.17-.11-.06-.11.15,0,.14,0a.35.35,0,0,0-.16-.08l.19,0s0-.08-.24-.09c0,0,0-.11-.06-.13s-.4,0-.41-.35a.45.45,0,0,0-.32-.09,1.07,1.07,0,0,1,.36-.1,1.1,1.1,0,0,0,.36,0,.9.9,0,0,0,.31.36s-.25-.28-.25-.44a1.14,1.14,0,0,1-.37-.05.19.19,0,0,1,0-.18l-.19-.16h0a.42.42,0,0,1,.31,0s.15-.07.4.15c0,0,.05,0,.05.19a.73.73,0,0,0,.18.4.83.83,0,0,1-.1-.34s0-.3-.19-.38a.38.38,0,0,0-.15-.32,1.4,1.4,0,0,1,.34.13l.07.06a.8.8,0,0,1,.21.2.29.29,0,0,1,0,.27.61.61,0,0,0,.1.37.37.37,0,0,0,0-.15.2.2,0,0,1,0-.21.43.43,0,0,0,0-.25,2.45,2.45,0,0,0,0-.27.57.57,0,0,1,.14.28.24.24,0,0,1,0,.21c-.06.08-.24.52.38,1,0,0,.18.21.31.22a.59.59,0,0,0-.07.26,1.21,1.21,0,0,1-.46.08s.12.18.47.05v0a.66.66,0,0,1-.34.06.27.27,0,0,0,.37,0,.19.19,0,0,0,0,.08.34.34,0,0,1-.2,0s0,.09.25,0a.41.41,0,0,1,0,.22h.12v0l.08,0a1.81,1.81,0,0,1,0-.22.42.42,0,0,1,0-.22s.07-.15,0-.07a.4.4,0,0,0-.09.2.44.44,0,0,1,.1-.53s-.16.1-.19.19a1,1,0,0,1,.12-.35s0-.08.34-.23a.54.54,0,0,0-.32.13s-.07-.25.3-.46c0,0,.15-.08.16-.13s-.16.12-.25.1a.66.66,0,0,1,.36-.32A.13.13,0,0,0,24,13a.49.49,0,0,1,0-.18.07.07,0,0,0,0-.1c-.06,0-.05-.2,0-.28s.1-.25.17-.27a.14.14,0,0,1,.15,0s.06,0,.09-.05.07-.12.1-.09.09.07.16-.06.17,0,.2,0a.16.16,0,0,0,.1.08s0,0,0-.07.28-.16.32-.06.06.1,0,.16,0,0,0,.05,0,0,.06,0,.06-.09.11-.11a.19.19,0,0,1,.15.06c.14.12,0,.29,0,.29a.24.24,0,0,0,.13-.07c.06,0,.14.05.11.14s-.14.13-.07.12a.27.27,0,0,0,.11-.05s.08.07-.06.18a0,0,0,0,0,0,.07s0,0,.12,0l.14.07a1.42,1.42,0,0,1-.05.16.46.46,0,0,1-.28.23.33.33,0,0,0,0,.14c0,.06.18.27.11.46l-.11-.21a.41.41,0,0,0,0,.19c0,.1.13.5-.18.54a.73.73,0,0,0-.13-.55.46.46,0,0,1,0-.26l0-.05s0,.21,0,.23a.9.9,0,0,1,.07-.27.49.49,0,0,0,.1-.37s0,0,0,.08a.29.29,0,0,1-.18.27c-.1,0-.28.12-.31-.13,0,0-.09,0,0,.14s.17.09.17.09-.06.39,0,.38,0-.36.06-.37a.06.06,0,0,1,.07,0,.57.57,0,0,0,0,.26,1.12,1.12,0,0,1,.1.31c0,.1,0,.2,0,.3l0,0a.81.81,0,0,0-.06-.31s.06.32,0,.37a1.21,1.21,0,0,1-.12-.41.08.08,0,0,0,0-.08s-.06,0,0,.07a1.18,1.18,0,0,1,.06.27.65.65,0,0,1,0,.31l-.16.18,0,0a.56.56,0,0,0,.08-.38S25.1,15,25,15s0-.44.05-.59,0,0,0,.06a1.52,1.52,0,0,1-.1.48s-.09.14-.1.16-.08,0-.08,0a.72.72,0,0,0,.08-.32,2.77,2.77,0,0,1-.1.26s-.07.14-.09.14l-.06,0a1.37,1.37,0,0,0,.09-.49.19.19,0,0,0-.05.13c0,.08-.06.31-.13.34a.91.91,0,0,0-.16.11s-.12,0-.14,0,.2-.15.22-.23a1.07,1.07,0,0,1,.07-.19s-.12.09-.12.15-.21.22-.24.23,0,0-.05,0a.54.54,0,0,0,.26-.45.12.12,0,0,0-.05.07s-.11.22-.14.22-.27.14-.27.21,0,.07,0,.06h.21a.33.33,0,0,0,.24,0,.19.19,0,0,1,.2,0,1.09,1.09,0,0,0,.26,0l.16-.07s.15,0,.18-.06.16-.11.13-.16.07,0,.14-.23c0,0,.18-.05.19-.17s.19,0,.32-.22a.63.63,0,0,0,0-.27A.2.2,0,0,0,26,14a2,2,0,0,0,1,0s1.12-.17,1.88-.22l1.72.1s.39,0,.49-.12.24-.29-.61-.43c0,0-1.55,0-1.77.07l-.69,0c-1.19.06-1.26-.39-1.15-.69a1.33,1.33,0,0,1,1.11-.53,2.89,2.89,0,0,0,.6-.1,1.1,1.1,0,0,1,.62-.07c-.07,0-.15.12-.25.17a3.31,3.31,0,0,1-.63.1,3.33,3.33,0,0,0,.63,0,.86.86,0,0,1,.49.15,1.5,1.5,0,0,0-.89,0,.14.14,0,0,0,.11,0,1.62,1.62,0,0,1,1.06.15s-.1.13-.2.07-.56-.26-.79-.09a1.21,1.21,0,0,1,.7.13s-.13.12-.47.05a6,6,0,0,1-.63-.27,3.54,3.54,0,0,1,.51.35A.48.48,0,0,0,29,13s0,.23-.54-.07a1.37,1.37,0,0,0-.79-.4c-.14,0-.5,0-.59.25s.16.34.35.35a4.57,4.57,0,0,0,.83,0l.21,0a.79.79,0,0,0,.42.12.6.6,0,0,0,.38-.17,6.46,6.46,0,0,1,1.16,0l-.15-.21a.11.11,0,0,1,0-.11,3.24,3.24,0,0,1,.76.45s0,0-.1-.31a.9.9,0,0,1-.06-.22,1.12,1.12,0,0,1,.42.54s.1-.05-.19-.45a.74.74,0,0,1,.41.64s.21-.08.15-.67c0,0,.18.11.1.55a2,2,0,0,0,0-.42s.34.27-.11.83a.31.31,0,0,0,.13-.06.61.61,0,0,1,.44,0,.45.45,0,0,0,.28,0s-.08.1-.34.08-.35.06-.35.06a.57.57,0,0,1,.29,0,.46.46,0,0,0,.51-.17l.07,0a.38.38,0,0,1-.3.27c-.25,0-.36-.09-.61,0a2.67,2.67,0,0,1,.56,0s-.12.14-.72.12A1.78,1.78,0,0,1,32,14a.32.32,0,0,1,.17.19s-.37-.27-.58-.24a2.45,2.45,0,0,1,.51.26,2.41,2.41,0,0,0-.64-.12s-1.44,0-1.59.05S29.7,14,29.56,14l.05.09s-.69-.33-.94-.16a2.25,2.25,0,0,1,1.15.38s.23.29.41.31a.55.55,0,0,0,.46-.13s.43-.19.44.11c0,0,0,.15-.29.18a.44.44,0,0,0,.4-.1s.26,0,.37.08a.88.88,0,0,0-.59.16l.24-.08a.56.56,0,0,1,.36,0s.06,0,.05,0,.13.08.13.15,0,.11-.07,0-.14-.2-.53,0c0,0,.41-.09.45,0a.92.92,0,0,1-.4.11.73.73,0,0,0,.44,0s.2.07.23.12a5.8,5.8,0,0,0-.69,0,3.88,3.88,0,0,0,.48,0c.08,0,.23.07.24.12a2.6,2.6,0,0,0-.4,0,1,1,0,0,1,.38.13s.05.15-.11.05l-.31,0s.41.13.34.18-.28,0-.28,0,.11,0,.2.07.15.08.09.1-.07.06.07.15.25.32,0,.51l0,0s0-.06-.06-.05,0,.05,0,.08,0,0,0,.09a.17.17,0,0,0,0,.05.51.51,0,0,1-.16-.09s-.12-.08-.11-.11,0-.34-.12-.36l.06.18a.37.37,0,0,1,0,.23l.1.09a.22.22,0,0,1-.14.06.25.25,0,0,0,0,.09s0,.15,0,.19a.43.43,0,0,1-.32-.33.27.27,0,0,1-.07-.14,1.62,1.62,0,0,0,.1-.18.44.44,0,0,0,0-.2.44.44,0,0,1-.06.16c0,.07,0,.13-.1.15s0,.07-.06.08a.26.26,0,0,0-.17.27.49.49,0,0,1-.18-.37.78.78,0,0,1,0-.21s.14-.11.18-.11.22-.06.22-.13,0-.08-.05,0-.13.15-.22.12-.1.08-.15.08-.15.07-.15.07a.33.33,0,0,1,.13-.23s.08-.24.46-.19a.46.46,0,0,0-.13-.2,3.12,3.12,0,0,0-.43-.46,7.84,7.84,0,0,0-1.19-.06c-.12,0-.62-.12-.66-.24s-.15-.34-.16-.39a.76.76,0,0,0-1.05-.22.18.18,0,0,0-.07,0s0,.07.11,0a.9.9,0,0,1,.72.06l.18.06s0,0,0,0a.76.76,0,0,0-.3,0c-.1,0-.21-.09-.21-.09s-.07-.07-.38,0l-.24.08Z" transform="translate(-14.98 -1.9)"/><path class="cls-6" d="M27.59,14.54h.08c.11,0,.28,0,.28,0s0,.1.07.1.33,0,.45.07.09,0,.08,0-.33.1-.1.45a1.26,1.26,0,0,0,.29.32s.07.16-.17.23a.54.54,0,0,0-.23-.33l.06.1a.33.33,0,0,1,0,.41,1.13,1.13,0,0,0-.06-.37,1.36,1.36,0,0,0,0,.16c0,.08,0,.39-.19.35,0,0,.11-.37-.05-.56a.79.79,0,0,1,0,.2c0,.1,0,.37-.23.41a.38.38,0,0,0,0-.34.54.54,0,0,1-.06.31.52.52,0,0,1-.19.11.53.53,0,0,0,0-.46.77.77,0,0,1,0,.15.44.44,0,0,1-.24.36.86.86,0,0,0,.05-.27s-.09.36-.27.3a.56.56,0,0,0,.09-.17.34.34,0,0,0,0-.28.47.47,0,0,0,0,.17c0,.13-.09.24-.12.24s.07-.2,0-.28,0,.29-.18.34-.13,0-.12,0a.39.39,0,0,1,.06-.11s0,0-.06,0a1,1,0,0,1-.33.24.41.41,0,0,1-.19,0,.67.67,0,0,0-.24.07c0-.09.08-.17.14-.17s.07,0,.06,0a.56.56,0,0,1,0-.12.14.14,0,0,1,.11-.07c.05,0,.22-.08.22-.14a.77.77,0,0,1-.26.07.27.27,0,0,0-.23.18s-.14.19-.37-.08c0,0-.18-.08-.21,0a.45.45,0,0,1,.23-.22s.09-.14.15-.12a1.13,1.13,0,0,0,.32,0s.16,0,0,0A3.16,3.16,0,0,1,26,15.7c-.06,0-.11,0-.16-.11s-.09-.15-.22-.14a.32.32,0,0,1,.34,0,.1.1,0,0,1,.09-.07,1,1,0,0,1,.29.12l.12.09s.12,0,.07,0-.14-.1-.14-.13v-.07l-.09-.14a.53.53,0,0,1,.24.06.29.29,0,0,1,.29.28v0s0,.1.13,0a2.7,2.7,0,0,1,.4-.14c.05,0,.16,0,.16-.08s.06,0,.06,0a.66.66,0,0,0-.09-.28c-.1-.2-.12-.28-.1-.35s.12-.11.14-.2Z" transform="translate(-14.98 -1.9)"/><path class="cls-3" d="M24.19,12.33a.16.16,0,0,1,0,.2s-.18.18-.18,0c0,0,0,.09.06,0s0-.12.1-.14,0,0,0-.07" transform="translate(-14.98 -1.9)"/><path class="cls-3" d="M25.37,13s0,0,0,0,0,.1-.08,0,0-.09,0-.11.1,0,.12,0,0,.08,0,.06m.37-.09a.24.24,0,0,1-.09.06.09.09,0,0,1-.07,0l0,0,0,0a.16.16,0,0,0-.2-.07c-.14,0-.14,0-.16,0s0-.08,0-.14,0-.05,0-.05a.23.23,0,0,0-.08.2.11.11,0,0,1,0,.08c-.1.26-.13.22-.13.22a.09.09,0,0,0-.07,0s-.05-.06-.05-.06,0,0,0,0,0,0,0,0,.05,0,.05,0,0,0,0,0a.07.07,0,0,1,.05,0c.11,0,0,.07,0,.07s-.06-.05-.06-.05,0,.09,0,.09,0,.05,0,.05-.06,0,0,0a.08.08,0,0,0,.07-.05c.08-.07,0-.11,0-.11a.39.39,0,0,0,.12-.19c0-.07.07-.06.08,0s0,.08,0,.1a.47.47,0,0,1-.06.09,0,0,0,0,0,0,0l0,0a.11.11,0,0,0,.06-.06c0-.07.07,0,.07,0a.28.28,0,0,0,.17.07c.16,0,.2-.08.2-.08s-.07,0-.07,0-.08,0-.07,0,.05,0,.05,0h.1s.09-.08.07,0,.06-.09.06-.09" transform="translate(-14.98 -1.9)"/><path class="cls-3" d="M25.92,13.08s-.06,0,0,.07.05,0,0,0,0,.09-.08,0a.16.16,0,0,1,0-.16c.06-.06,0-.07.1,0s.09.05,0,.08" transform="translate(-14.98 -1.9)"/><path class="cls-3" d="M22.4,14.08s.1,0,.1,0-.1,0-.14,0l-.09,0s.06.09.13.07" transform="translate(-14.98 -1.9)"/><path class="cls-3" d="M22.31,14.13s0,0,.11,0a.58.58,0,0,1,.23,0s.06.05-.11.05l-.11,0a.1.1,0,0,1-.12-.06" transform="translate(-14.98 -1.9)"/><path class="cls-3" d="M22.82,14.2a.31.31,0,0,0-.11.09.46.46,0,0,1-.32-.08l.17,0a.48.48,0,0,1,.26,0" transform="translate(-14.98 -1.9)"/><path class="cls-3" d="M22.42,14.32a.75.75,0,0,0,.29.09s.18,0,.2-.05-.09,0,.08-.08c0,0,0-.06-.24.05,0,0-.08.07-.33,0" transform="translate(-14.98 -1.9)"/><path class="cls-3" d="M29.84,14s-.13-.09-.07,0,.12.13.12.08,0-.08-.05-.09" transform="translate(-14.98 -1.9)"/><path class="cls-3" d="M30.05,14s-.1-.1-.07,0,0,.08.05.1.1,0,0-.08" transform="translate(-14.98 -1.9)"/><path class="cls-3" d="M30.21,14s-.08-.08-.07,0,.07.1.07.08,0,0,0-.06" transform="translate(-14.98 -1.9)"/><path class="cls-3" d="M30.36,14s-.1,0,0,0,.08,0,0,0" transform="translate(-14.98 -1.9)"/><path class="cls-3" d="M30.5,14s0,0,0,0,0,.06,0,0" transform="translate(-14.98 -1.9)"/><path class="cls-3" d="M29.92,15s-.1-.2-.08,0,.15.18.08,0" transform="translate(-14.98 -1.9)"/><path class="cls-3" d="M30.11,15s-.12-.22-.09,0,.1.17.09,0" transform="translate(-14.98 -1.9)"/><path class="cls-3" d="M30.28,15s-.1-.17-.08,0,.13.13.08,0" transform="translate(-14.98 -1.9)"/><path class="cls-3" d="M30.44,15s-.09-.15-.06,0,.1.1.06,0" transform="translate(-14.98 -1.9)"/><path class="cls-3" d="M30.66,15s-.05-.15-.06,0,0,.17.09.11l0-.08" transform="translate(-14.98 -1.9)"/><path class="cls-3" d="M27.77,14.7a.55.55,0,0,1,.49.27s0,.09-.09,0a1.86,1.86,0,0,0-.35-.22s-.08,0-.05,0" transform="translate(-14.98 -1.9)"/><path class="cls-3" d="M27.84,14.84a1.38,1.38,0,0,1,.35.22s0,.09-.05,0a3,3,0,0,0-.25-.16s-.17-.11-.05-.09" transform="translate(-14.98 -1.9)"/><path class="cls-3" d="M28.12,14.67s-.13,0-.05,0,.18.11.21.17,0,.05,0,0a.53.53,0,0,0-.2-.22" transform="translate(-14.98 -1.9)"/><path class="cls-3" d="M28.24,14.65s.16.12.16.16.05,0,0,0,0-.1-.07-.13-.12,0-.1,0" transform="translate(-14.98 -1.9)"/><path class="cls-3" d="M27.85,15s-.12,0,0,.06l.23.11c.06,0,.06,0,0,0a.46.46,0,0,0-.26-.15" transform="translate(-14.98 -1.9)"/><path class="cls-3" d="M28,15.19s-.21-.08-.11,0a.37.37,0,0,0,.14.07s.1,0,0-.06" transform="translate(-14.98 -1.9)"/><path class="cls-3" d="M27.89,15.31s-.12,0-.05,0l.1,0s.06,0-.05,0" transform="translate(-14.98 -1.9)"/><path class="cls-1" d="M21.61,15.9s-.07.11-.16,0,0-.13.05-.12.14,0,.11.08" transform="translate(-14.98 -1.9)"/><path class="cls-1" d="M21.76,16.23s-.15-.05-.14.06.09.06.13.06.12-.07,0-.12" transform="translate(-14.98 -1.9)"/><path class="cls-1" d="M21.67,15.55a.08.08,0,0,0,0,.1h0c.06.05.13.11.14.07s.07-.13-.14-.18" transform="translate(-14.98 -1.9)"/><path class="cls-1" d="M22.21,15.59s0,.08-.07.05,0-.15.06-.08Z" transform="translate(-14.98 -1.9)"/><path class="cls-1" d="M22.19,15.88s-.11,0-.12,0-.06.12.16.07a2.74,2.74,0,0,0,.76-.3,4.14,4.14,0,0,1,.68-.39c.06,0,0-.1-.06,0s-.58.31-.64.38-.72.42-.8.3,0,0,0,0" transform="translate(-14.98 -1.9)"/><path class="cls-1" d="M22.7,16s-.1.25-.18.2.18-.23.18-.2" transform="translate(-14.98 -1.9)"/><path class="cls-1" d="M22.88,15.87s0,.18-.09.19.05-.2.09-.19" transform="translate(-14.98 -1.9)"/><path class="cls-1" d="M23.15,15.78S23.06,16,23,16s.1-.22.12-.22,0,0,0,0" transform="translate(-14.98 -1.9)"/><path class="cls-1" d="M23.4,15.67s-.15.3-.16.16.13-.25.16-.16" transform="translate(-14.98 -1.9)"/><path class="cls-1" d="M23.58,15.61s-.17.3-.09.07c0,0,.1-.15.09-.07" transform="translate(-14.98 -1.9)"/><path class="cls-1" d="M23.78,15.51s-.13.26-.11.13.1-.16.11-.13" transform="translate(-14.98 -1.9)"/><path class="cls-1" d="M22.23,13.77s0,0,.09,0,0-.09-.09,0" transform="translate(-14.98 -1.9)"/><path class="cls-1" d="M22.21,13.61s-.14,0-.08,0,.22.06.08,0" transform="translate(-14.98 -1.9)"/><path class="cls-1" d="M22.11,13.42s-.13,0,0,.07.12,0,0-.07" transform="translate(-14.98 -1.9)"/><path class="cls-1" d="M23.82,13.61s-.28.08-.33.17.17,0,.33-.17" transform="translate(-14.98 -1.9)"/><path class="cls-1" d="M23.76,14s.08-.15-.12,0-.26.19-.23.19a.65.65,0,0,0,.35-.2" transform="translate(-14.98 -1.9)"/><path class="cls-1" d="M23.8,14.11s-.4.22-.37.53.06-.24.37-.53" transform="translate(-14.98 -1.9)"/><path class="cls-1" d="M24.47,13.1s-.08.17,0,.19,0,.14-.08,0,.12-.17.11-.19" transform="translate(-14.98 -1.9)"/><path class="cls-1" d="M24.84,13.42s0,.11,0,.15,0,.1-.07,0,0-.16.06-.12" transform="translate(-14.98 -1.9)"/><path class="cls-1" d="M24.33,12.66a.34.34,0,0,0,0,.35s-.23-.25,0-.35" transform="translate(-14.98 -1.9)"/><path class="cls-1" d="M24.59,12.16s0,0,0,0v0c0,.06,0,.14,0,.14s.05,0,0,0a.3.3,0,0,1,0-.16" transform="translate(-14.98 -1.9)"/><path class="cls-1" d="M25.09,12.11a.35.35,0,0,0-.17.37s0,.12,0,.15-.07,0-.1-.08.09-.5.23-.44" transform="translate(-14.98 -1.9)"/><path class="cls-1" d="M24.77,12.09s-.09.24,0,.35,0,.11-.11-.09c0,0,0-.32.09-.26" transform="translate(-14.98 -1.9)"/><path class="cls-1" d="M25.47,12.22s-.26.24-.25.4,0,.08,0,.17-.15,0,0-.28.21-.28.25-.29" transform="translate(-14.98 -1.9)"/><path class="cls-1" d="M28.32,14.13s.34.14.4.4a.48.48,0,0,0,.49.4s-.5-.18-.22-.17c0,0-.24-.1,0-.13,0,0-.3-.1-.06-.14,0,0-.42-.38-.6-.36" transform="translate(-14.98 -1.9)"/><path class="cls-1" d="M30.85,15.08a.9.9,0,0,0,.48.71,4.91,4.91,0,0,1-.48-.71" transform="translate(-14.98 -1.9)"/><path class="cls-1" d="M31.34,16.3s-.1.19,0,.21,0-.09,0-.21" transform="translate(-14.98 -1.9)"/><path class="cls-1" d="M31.72,16.22s-.1.11,0,.13,0-.06,0-.13" transform="translate(-14.98 -1.9)"/><path class="cls-1" d="M31.12,16.17s-.21.08-.14.18.15-.07.14-.18" transform="translate(-14.98 -1.9)"/><path class="cls-1" d="M29.38,13.14s2.1-.27,2,.46c0,0-.05.06-.13-.13s-.53-.33-1.85-.33" transform="translate(-14.98 -1.9)"/><path class="cls-1" d="M27.9,12.31s-1.37.35-.75.78c0,0-.21.05-.22-.22,0,0-.14-.36,1-.56" transform="translate(-14.98 -1.9)"/><path class="cls-1" d="M25.42,12.68a1.21,1.21,0,0,0,.21-.24s-.23.14-.21.24" transform="translate(-14.98 -1.9)"/><path class="cls-1" d="M24.34,13.43s0,.08,0,.08-.07-.07,0-.08" transform="translate(-14.98 -1.9)"/><path class="cls-1" d="M24.14,13.79s0-.09.05-.07,0,.13-.05.07" transform="translate(-14.98 -1.9)"/><path class="cls-3" d="M24.38,14.4s0,.06,0,0,.14-.06.13,0-.08.21-.05.23.07-.27.16-.27.09-.05.05.09,0,0,.09-.11.09-.1.09-.1a2,2,0,0,0,0,.24,1,1,0,0,1,.13-.32s.06-.12.06-.07a2.09,2.09,0,0,0,0,.25c0,.05.05-.23.07-.26a.32.32,0,0,0,0-.16c0-.08,0-.06,0,0s0,.19,0,.24,0-.16,0-.32c0,0,.1-.3,0-.14s0,.11-.14.22a.31.31,0,0,1-.12.16,1.12,1.12,0,0,0-.2.18c0,.05-.06.09-.08.07s0-.06,0-.08l-.09.08s0,0-.08,0a.09.09,0,0,1,0-.1s0,0-.08.06,0,.08-.07.07" transform="translate(-14.98 -1.9)"/><polygon class="cls-1" points="9.98 10.87 9.88 11.06 9.84 11.09 9.79 11.11 9.75 11.09 9.77 11.04 9.86 10.89 9.92 10.88 9.98 10.85 9.98 10.87"/><path class="cls-1" d="M24.64,12.51a0,0,0,0,1,0,0,0,0,0,0,1,0-.05,0,0,0,0,1,0,0s0,0,0,0h0" transform="translate(-14.98 -1.9)"/><path class="cls-1" d="M24.73,13.08a0,0,0,0,1,0,0s-.05,0,0,0h0s0-.05,0-.05a0,0,0,0,1,0,.05" transform="translate(-14.98 -1.9)"/><path class="cls-1" d="M25.37,12.93h.05V13h-.07v0h0Z" transform="translate(-14.98 -1.9)"/><path class="cls-8" d="M21.23,13.21a.19.19,0,0,0,.05-.19h0a1.07,1.07,0,0,0-.36.1.42.42,0,0,1,.31.09" transform="translate(-14.98 -1.9)"/><path class="cls-8" d="M21.12,12.51h0l.19.16h0a1.63,1.63,0,0,0,.11-.17.39.39,0,0,0-.3,0" transform="translate(-14.98 -1.9)"/><path class="cls-8" d="M21.77,12.48l.22-.1,0,0a1.4,1.4,0,0,0-.34-.13.32.32,0,0,1,.15.26" transform="translate(-14.98 -1.9)"/><path class="cls-8" d="M22.46,12.66h0a.57.57,0,0,0-.14-.28,2,2,0,0,1,0,.25l.13,0" transform="translate(-14.98 -1.9)"/><path class="cls-3" d="M25.14,12.45c-.11.28-.24.26-.28.26a.09.09,0,0,1-.06-.06h0a.18.18,0,0,0-.09-.19.66.66,0,0,0-.19-.09l-.1-.09s0,.07,0,.07a.09.09,0,0,0,.06.06.39.39,0,0,0,0,.3.19.19,0,0,0,.15.11s0,.1,0,.1l.06,0a.3.3,0,0,0,.09-.13s0,0,0,0a1,1,0,0,1-.15.25.14.14,0,0,0,0,.16.09.09,0,0,1,.06-.06h.08s0,0,0,0h-.1c-.07-.1.08-.09.08-.09s.1-.23.1-.23c.23,0,.33-.35.33-.35s0,0,0,0m-.42.27s-.15,0-.15,0,0-.25,0-.25l.11,0s0,.09,0,.09a.06.06,0,0,0,0,.09h0c.06,0,.07-.06.07-.06s.06.05.06.05Z" transform="translate(-14.98 -1.9)"/><path class="cls-8" d="M21.89,15.34l.11.08v0l.06,0a.21.21,0,0,0,.1-.06.45.45,0,0,0-.28-.07" transform="translate(-14.98 -1.9)"/><path class="cls-8" d="M21.66,15.46a.41.41,0,0,0-.32-.05.75.75,0,0,1,.15.09.1.1,0,0,1,.05,0,.15.15,0,0,0,.12-.08" transform="translate(-14.98 -1.9)"/><path class="cls-8" d="M21.25,16s.06-.13.06-.18a.4.4,0,0,0-.31.11c.23,0,.25.06.25.07" transform="translate(-14.98 -1.9)"/><path class="cls-8" d="M21.46,16.45c0-.05,0-.13,0-.16h0a.28.28,0,0,0-.23.1.69.69,0,0,1,.2,0Z" transform="translate(-14.98 -1.9)"/><path class="cls-3" d="M22.62,14.53l-.14,0-.12,0h-.12s0,0,0,0h.12l.1,0,.1,0,.05,0" transform="translate(-14.98 -1.9)"/><path class="cls-8" d="M26.31,16.33h0c-.06,0-.12.08-.14.17a.57.57,0,0,1,.22-.07.38.38,0,0,1,0-.1" transform="translate(-14.98 -1.9)"/><path class="cls-8" d="M25.62,16.11c0-.06.21,0,.21,0h0a.65.65,0,0,0,0-.24.47.47,0,0,0-.21.21" transform="translate(-14.98 -1.9)"/><path class="cls-8" d="M25.61,15.45a.26.26,0,0,1,.2.11.28.28,0,0,0,.05-.16.33.33,0,0,0-.25,0" transform="translate(-14.98 -1.9)"/><path class="cls-8" d="M26.29,15.24l.09.14h0a.23.23,0,0,0,.17-.08h0a.53.53,0,0,0-.24-.06" transform="translate(-14.98 -1.9)"/><path class="cls-8" d="M30.72,16.21a.21.21,0,0,0,0-.15.36.36,0,0,0-.13.23s.1-.08.15-.07h0" transform="translate(-14.98 -1.9)"/><path class="cls-8" d="M31,16.65a.31.31,0,0,0-.26-.09.46.46,0,0,0,.17.32.32.32,0,0,1,.09-.23" transform="translate(-14.98 -1.9)"/><path class="cls-8" d="M31.53,17.06s0-.15,0-.18a.36.36,0,0,1,0-.09,1.27,1.27,0,0,0-.34-.05.41.41,0,0,0,.32.32" transform="translate(-14.98 -1.9)"/><path class="cls-8" d="M31.91,16.74c-.05-.08,0-.08,0-.09s0,0,0-.08a.78.78,0,0,0-.22,0,.09.09,0,0,1,0,.05s.11.11.11.11a.51.51,0,0,0,.16.09l0-.05" transform="translate(-14.98 -1.9)"/><path class="cls-1" d="M27.92,14a9.46,9.46,0,0,0-1.06.21c-.64-.06-.76.1-.76.1a.31.31,0,0,0-.07.09,0,0,0,0,0,0,0,.32.32,0,0,0,0,.09s0-.06,0-.11h0s0,.08.05.08,0-.08,0-.12a.2.2,0,0,1,.08,0l0,0c.06.06.09.09.09.06a.56.56,0,0,0,0-.12l.07,0h0s0,0,0,0h.07s0,0,0,0h.09l0,0,.2,0A5.42,5.42,0,0,1,27.92,14" transform="translate(-14.98 -1.9)"/><path class="cls-3" d="M23.48,15.17s-.07,0-.13-.19-.06,0-.06,0a.49.49,0,0,0,0,.12l0,.06v.09Z" transform="translate(-14.98 -1.9)"/><path class="cls-3" d="M24.49,13.49l-.09-.06s0,0,0,0a.11.11,0,0,1,0,.07l-.07,0s0-.08,0-.11,0,0,0-.06,0,0,0,0,0,0,0,0a.31.31,0,0,1-.05-.1s0,0,0-.07,0,0,0-.07l0,0s0,0,0,0a.25.25,0,0,1-.12-.11.31.31,0,0,1,0-.23l.06-.1s0-.07,0,0l-.05.05a.51.51,0,0,0-.09.27.35.35,0,0,0,.1.2l0,0v0a.27.27,0,0,0,0,.12.11.11,0,0,0,0,.08s0,.06,0,.09v.05a.45.45,0,0,0-.11.19c0,.09,0,0,0,0l.05-.05a.45.45,0,0,1,.06-.12v0l0,.06s.06,0,.06,0l.06,0,.14-.07Z" transform="translate(-14.98 -1.9)"/><path class="cls-3" d="M25.08,13.74l-.1,0,0,0v0a.3.3,0,0,1,0,.1l-.07.1,0,.05,0,.06v0s-.12,0-.17,0a.13.13,0,0,1-.07-.06v-.07l.13-.07s.05-.05.06-.05,0,0,0,.06,0,0,0,0L24.8,14a.27.27,0,0,0,.06-.12l0,0-.11,0-.09,0,0-.06v-.2h0l0,0s0,0,0,0,0,0,0,0h0v.1l.11-.05s0,0,0-.06,0,0,.06,0H25s.05,0,.06,0,.07,0,.07,0a.09.09,0,0,1-.05.1m-.39.3-.09.06s0,0,0,0a.18.18,0,0,0,.1,0s0,0,0,0,0-.06,0-.1" transform="translate(-14.98 -1.9)"/><path class="cls-3" d="M24.56,14h0v0l0,0,0-.06a.94.94,0,0,0,.06-.15.17.17,0,0,0,0-.07.36.36,0,0,1,0-.09c0-.08-.24-.08-.24-.08s0,0,0,0v.08l-.06.07s0,0,0,0a.75.75,0,0,0-.1.2c0,.07,0,0,0,0a.5.5,0,0,0,0-.24c-.06,0-.09,0-.08,0s0,0,0,0a0,0,0,0,0,0,0s0,0,0,0-.06.09-.06.09a.09.09,0,0,0,0,.11.56.56,0,0,0,.05.08c0,.07,0,0,0,0s.07,0,.07,0a.14.14,0,0,0,0,.11.14.14,0,0,1,0,.09l0,0s0,0,0,0,0,0,0,0,0-.09,0-.09,0,0,0,0-.05,0-.05,0S24,14,24,14s0-.1,0-.1a1,1,0,0,1,0-.25c.09-.07,0-.06,0-.06a.19.19,0,0,1,.05-.09c.05-.15-.05,0-.05,0a.85.85,0,0,0-.12.49.11.11,0,0,1,0,.08c0,.19.07.17.07.17s0,0,0,0,0,.07,0,.07,0,0,0,.05l-.11.11c-.09,0-.08.07-.08.07s.14.11.14.11a.44.44,0,0,0,.26-.16.19.19,0,0,1,.11-.09.8.8,0,0,0,.11-.25h0a.94.94,0,0,1,0-.16m-.4-.15c0,.06,0,0,0,0s-.06-.06,0-.08,0,0,.05,0,0-.06.06,0a.14.14,0,0,1,0,.09" transform="translate(-14.98 -1.9)"/><path class="cls-8" d="M24.5,13.85a.79.79,0,0,0-.05.22,1,1,0,0,1-.32.46H24c-.08,0,0,0,0,0s.16-.16.16-.16a.73.73,0,0,0,.09-.32.46.46,0,0,1,.1-.25s0-.12,0-.14a.09.09,0,0,0,0-.08l.07,0c.08,0,0,.17,0,.29" transform="translate(-14.98 -1.9)"/><path class="cls-3" d="M26.75,14.57a3.1,3.1,0,0,0-.57.3l-.07-.06s0,0,0,0a0,0,0,0,1,0,.05l0,0L26,15a.39.39,0,0,1-.14-.08s0,0,0,.07l0,.05-.14,0-.13-.14.1-.05.1,0s.09-.07.08-.09-.07,0-.09,0l-.22.07a.53.53,0,0,0-.25.19.63.63,0,0,0-.1.27v0l.09,0,0,0,0-.07s0,0,0,0a.66.66,0,0,0,.2,0,1,1,0,0,0,.29-.08l.37-.18.45-.26.34-.13-.35.07M25.54,15a.19.19,0,0,1,.06-.07l.1.12h0s-.13,0-.12-.06" transform="translate(-14.98 -1.9)"/><path class="cls-16" d="M45.77,15.17h.82a2.32,2.32,0,0,1-2.42,2.14,2.57,2.57,0,0,1-2.58-2.85,2.57,2.57,0,0,1,2.58-2.85,2.28,2.28,0,0,1,2.39,1.93h-.83a1.49,1.49,0,0,0-1.56-1.2c-1,0-1.73.79-1.73,2.12s.69,2.12,1.73,2.12a1.56,1.56,0,0,0,1.6-1.41m4.87,1.43h.21v.59l-.37,0c-.49,0-.72-.18-.77-.56a1.47,1.47,0,0,1-1.29.63c-.85,0-1.41-.42-1.41-1.17S47.4,15,48.5,14.88l.58-.06c.38-.05.59-.18.59-.5s-.19-.57-.81-.57-.88.18-.92.72h-.76c0-.8.49-1.33,1.68-1.33s1.56.48,1.56,1.16v2.1c0,.12.06.2.22.2m-1-1.39a.92.92,0,0,1-.49.16l-.55.06c-.64.08-.83.3-.83.65s.24.6.74.6a1,1,0,0,0,1.13-.94v-.53Zm3.58-.62q-.31.95-.6,1.89c-.18-.63-.38-1.26-.59-1.89l-.46-1.36h-.83l1.46,4.06c0,.1-.07.21-.1.3a.66.66,0,0,1-.69.48h-.39v.62l.4,0a1.32,1.32,0,0,0,1.46-1l1.61-4.45h-.81Zm6.61,0v2.56h.77V14.54a1.28,1.28,0,0,0-1.15-1.4h-.21a1.4,1.4,0,0,0-1.23.74,1.24,1.24,0,0,0-1.22-.74,1.26,1.26,0,0,0-1.14.68v-.59H55v4h.76V15c0-.86.48-1.21.93-1.21s.76.26.76.82v2.56h.77V15c0-.86.46-1.21.93-1.21s.76.26.76.82m5,2h.22v.59l-.38,0c-.49,0-.71-.18-.76-.56a1.47,1.47,0,0,1-1.29.63c-.85,0-1.41-.42-1.41-1.17s.38-1.12,1.49-1.23l.58-.06c.38-.05.59-.18.59-.5s-.19-.57-.82-.57-.88.18-.91.72h-.76c0-.8.49-1.33,1.67-1.33s1.57.48,1.57,1.16v2.1a.18.18,0,0,0,.21.2m-1-1.39a1,1,0,0,1-.49.16l-.55.06c-.64.08-.83.3-.83.65s.24.6.73.6a1,1,0,0,0,1.13-.94.49.49,0,0,0,0-.12ZM66.38,15a1,1,0,0,1,.9-1.14h.1a.75.75,0,0,1,.83.63.67.67,0,0,1,0,.2v2.55H69V14.54a1.28,1.28,0,0,0-1.13-1.4h-.26a1.48,1.48,0,0,0-1.24.68v-.59h-.73v4h.76Zm5.88-3.23h-.82v5.46h.82Zm2.38,4.95c-.64,0-.91-.2-1-.75H72.9c.06.94.68,1.36,1.74,1.36s1.65-.44,1.65-1.22-.41-1-1.37-1.17l-.42-.07c-.46-.1-.73-.23-.73-.56s.27-.53.77-.53.89.16.92.73h.75c0-.84-.55-1.33-1.67-1.33S73,13.59,73,14.29s.41,1,1.26,1.18l.4.08c.66.11.85.26.85.58s-.26.55-.88.55m3.22.53.43,0v-.62H78c-.28,0-.39-.1-.39-.33V11.73h-.76V16.3c0,.66.35.91,1,.91m4.34-.61h.21v.59l-.37,0c-.49,0-.71-.18-.77-.56a1.44,1.44,0,0,1-1.28.63c-.85,0-1.41-.42-1.41-1.17S79,15,80.06,14.88l.58-.06c.39-.05.59-.18.59-.5s-.19-.57-.81-.57-.88.18-.92.72h-.76c.05-.8.49-1.33,1.68-1.33S82,13.62,82,14.3v2.1c0,.12.07.2.22.2m-1-1.39a.92.92,0,0,1-.49.16l-.55.06c-.63.08-.83.3-.83.65s.24.6.74.6a1,1,0,0,0,1.13-.94.48.48,0,0,0,0-.12Zm3.67-2.07a1.47,1.47,0,0,0-1.24.68v-.59h-.74v4h.77V15a1,1,0,0,1,.9-1.14h.09a.75.75,0,0,1,.84.63.67.67,0,0,1,0,.2v2.55h.76V14.54a1.27,1.27,0,0,0-1.12-1.4H84.9m4.94-1.41h.77v5.46h-.74V16.6a1.51,1.51,0,0,1-1.31.68,1.83,1.83,0,0,1-1.81-2.07,1.83,1.83,0,0,1,1.81-2.07,1.5,1.5,0,0,1,1.28.63Zm0,3.48c0-.91-.45-1.41-1.15-1.41s-1.16.54-1.16,1.44.45,1.38,1.16,1.38,1.15-.51,1.15-1.41m3.36-.31-.41-.07c-.47-.1-.74-.23-.74-.56s.27-.53.77-.53.89.16.92.73h.75c0-.84-.55-1.33-1.67-1.33s-1.53.45-1.53,1.15.41,1,1.26,1.18l.41.08c.65.11.84.26.84.58s-.25.55-.87.55-.92-.2-1-.75h-.76c.05.94.67,1.36,1.73,1.36s1.65-.44,1.65-1.22-.4-1-1.37-1.17ZM44.11,22.28v.3h2.08c-.06,1.37-.78,2.28-2.1,2.28s-2.19-1-2.19-2.55.88-2.55,2.18-2.55a1.92,1.92,0,0,1,2,1.62h.33a2.21,2.21,0,0,0-2.36-1.92,2.55,2.55,0,0,0-2.52,2.85,2.55,2.55,0,0,0,2.53,2.85c1.57,0,2.43-1.12,2.43-2.75V22.3h0v0Zm6.6.78a1.81,1.81,0,1,1-3.59,0,1.81,1.81,0,1,1,3.59,0Zm-.33,0c0-1.06-.56-1.78-1.47-1.78s-1.46.72-1.46,1.78.57,1.79,1.46,1.79,1.47-.72,1.47-1.79Zm2.86.14c-.19.51-.4,1-.59,1.51-.17-.48-.38-1-.58-1.5l-.85-2.12h-.34L52.49,25h.33l1.61-3.95h-.34Zm4.84-.15v.11H54.92c0,1,.54,1.68,1.45,1.68a1.27,1.27,0,0,0,1.31-1.1H58a1.59,1.59,0,0,1-1.64,1.39c-1.12,0-1.77-.84-1.77-2.07S55.23,21,56.34,21s1.74.9,1.74,2.05m-.33-.18c0-.91-.52-1.58-1.41-1.58s-1.36.61-1.42,1.58ZM59.13,22v-.92h-.3V25h.32V22.85a1.35,1.35,0,0,1,1.2-1.5h.44v-.3h-.23a1.46,1.46,0,0,0-1.43,1m3.92-1a1.39,1.39,0,0,0-1.37.95v-.86h-.3V25h.31v-2.2c0-1.11.65-1.56,1.3-1.56a1.07,1.07,0,0,1,1.15,1.22V25h.32V22.47A1.32,1.32,0,0,0,63.33,21h-.28Zm6.51,0a1.36,1.36,0,0,0-1.32,1A1.2,1.2,0,0,0,67,21a1.31,1.31,0,0,0-1.28.95v-.86h-.3V25h.31V22.87c0-1.14.61-1.59,1.23-1.59S68,21.68,68,22.5V25h.31V22.87c0-1.14.6-1.59,1.23-1.59s1.06.4,1.06,1.22V25h.32V22.47c0-.91-.46-1.48-1.35-1.48Zm5.59,2.05v.11H72c0,1,.55,1.68,1.46,1.68a1.27,1.27,0,0,0,1.31-1.1h.32a1.59,1.59,0,0,1-1.64,1.39c-1.12,0-1.77-.84-1.77-2.07S72.3,21,73.41,21s1.74.9,1.74,2.05m-.33-.18c0-.91-.52-1.58-1.41-1.58s-1.36.61-1.42,1.58ZM77.57,21A1.4,1.4,0,0,0,76.2,22v-.86h-.3V25h.32v-2.2c0-1.11.65-1.56,1.3-1.56a1.07,1.07,0,0,1,1.15,1.22V25H79V22.47A1.31,1.31,0,0,0,77.85,21h-.28Zm2.81-1h-.32v1.12h-.68v.27h.68v2.89c0,.55.31.81.91.81l.4,0v-.27H81c-.46,0-.63-.19-.63-.55V21.36h1v-.27h-1Z" transform="translate(-14.98 -1.9)"/></g></svg>